<svg width="61" height="76" viewBox="0 0 61 76" fill="none" xmlns="http://www.w3.org/2000/svg">
<path d="M60.0759 37.0921L53.0505 30.8427L60.0556 24.5733C60.224 24.4225 60.2973 24.1921 60.2468 23.9716C60.1963 23.7511 60.0299 23.5754 59.8126 23.513L50.7764 20.9157L54.3695 12.2338C54.4561 12.0249 54.4221 11.7853 54.2811 11.6087C54.1401 11.4319 53.9134 11.3455 53.6911 11.3835L44.4203 12.9611L43.8885 3.57639C43.8757 3.3505 43.7414 3.14946 43.5374 3.05158C43.3342 2.95355 43.093 2.9739 42.9082 3.10487L35.243 8.54853L30.6922 0.320663C30.5828 0.12289 30.3745 0 30.1484 0C29.9222 0 29.714 0.12289 29.6047 0.320663L25.0164 8.61643L17.2644 3.16158C17.0795 3.03154 16.8384 3.01228 16.6351 3.11093C16.4315 3.2099 16.2981 3.41155 16.2863 3.63745L15.7963 13.0285L6.51785 11.4918C6.29413 11.4547 6.06902 11.542 5.92873 11.7194C5.78844 11.8969 5.75566 12.1366 5.84312 12.3451L9.4756 21.0123L0.447466 23.6439C0.230272 23.7073 0.0646591 23.8837 0.0150992 24.1046C-0.0344607 24.3254 0.0399568 24.5556 0.209299 24.7057L7.25022 30.944L0.256839 37.2311C0.0885845 37.3824 0.015876 37.6132 0.0668341 37.8335C0.117948 38.0538 0.284804 38.229 0.502464 38.291L9.54318 40.8599L5.96555 49.5562C5.87948 49.7653 5.91381 50.0047 6.05534 50.1812C6.17451 50.3297 6.35348 50.4139 6.54022 50.4139C6.57534 50.4139 6.61076 50.4109 6.64587 50.4047L13.3697 49.245L7.52676 71.0207C7.46166 71.2635 7.54913 71.5217 7.74861 71.6748C7.9481 71.828 8.22013 71.8461 8.43764 71.72L17.1575 66.6869L22.1851 75.3952C22.297 75.5891 22.5032 75.7059 22.7232 75.7059C22.75 75.7059 22.7772 75.7042 22.8043 75.7006C23.0535 75.6678 23.2584 75.4882 23.3235 75.2454L27.8923 58.2092L29.6709 61.4118C29.7805 61.6091 29.9884 61.7316 30.2142 61.7316C30.2145 61.7316 30.2148 61.7316 30.2151 61.7316C30.4411 61.7313 30.6493 61.6081 30.7584 61.4103L32.4321 58.3744L36.9512 75.2454C37.0163 75.4882 37.2211 75.6678 37.4702 75.7008C37.4976 75.7043 37.5248 75.7061 37.5517 75.7061C37.7713 75.7061 37.9773 75.5894 38.0895 75.3958L43.126 66.6871L51.8392 71.7201C51.9358 71.7759 52.0432 71.8034 52.1499 71.8034C52.1512 71.8034 52.1524 71.8034 52.1532 71.8034C52.4965 71.8034 52.7746 71.5252 52.7746 71.182C52.7746 71.1043 52.7603 71.0299 52.7344 70.9612L46.8871 49.1468L53.7338 50.2968C53.7683 50.3025 53.8026 50.3055 53.8368 50.3055C53.8385 50.3055 53.8401 50.3055 53.8415 50.3055C54.1839 50.3045 54.4612 50.0267 54.4612 49.684C54.4612 49.5776 54.4345 49.4775 54.3874 49.3899L50.7958 40.7643L59.8351 38.1532C60.0525 38.0904 60.2187 37.9142 60.2687 37.6935C60.3191 37.473 60.2451 37.2425 60.0759 37.0921ZM36.8359 50.7496C36.7054 50.7936 36.5741 50.836 36.4425 50.8775C36.3866 50.8949 36.3305 50.9123 36.2746 50.9292C36.1859 50.9564 36.0967 50.983 36.0075 51.0089C35.9208 51.0341 35.8342 51.0588 35.7472 51.0829C35.6908 51.0987 35.634 51.1138 35.5775 51.129C35.4644 51.1592 35.3511 51.189 35.2376 51.2173C35.2124 51.2236 35.1871 51.2295 35.1619 51.2357C33.9496 51.5331 32.7058 51.724 31.4432 51.8013C31.4399 51.8014 31.4367 51.8028 31.4334 51.803C31.1915 51.8179 30.9492 51.8297 30.7051 51.8362C30.6813 51.8368 30.6585 51.8372 30.635 51.8378C30.4708 51.8415 30.3064 51.844 30.1413 51.844C29.9723 51.844 29.8037 51.8415 29.6354 51.8376C29.618 51.8371 29.6011 51.8368 29.5837 51.8364C29.3376 51.83 29.0929 51.8179 28.849 51.803C28.8457 51.8027 28.8426 51.8014 28.8392 51.8013C27.5774 51.724 26.3342 51.5333 25.1227 51.2361C25.0967 51.2297 25.0708 51.2236 25.045 51.2171C24.9318 51.1888 24.8188 51.1592 24.706 51.129C24.6493 51.1138 24.5926 51.0987 24.5361 51.083C24.4489 51.0589 24.3619 51.0341 24.2752 51.0088C24.187 50.983 24.0987 50.9569 24.0109 50.93C23.9535 50.9126 23.8961 50.8947 23.8388 50.8767C23.7098 50.836 23.5812 50.7945 23.4533 50.7513C23.4359 50.7456 23.4185 50.7398 23.4011 50.7339C16.123 48.2604 10.6285 41.8961 9.40879 34.1325C9.40398 34.1012 9.39838 34.0702 9.39372 34.0389C9.38238 33.9642 9.37275 33.889 9.36219 33.8141C9.34525 33.6931 9.32801 33.5721 9.31325 33.4506C9.312 33.4405 9.31092 33.4302 9.30983 33.4201C9.22283 32.6958 9.17296 31.9638 9.16099 31.2251C9.16084 31.2153 9.15866 31.2056 9.15804 31.1958C9.15633 31.0858 9.15385 30.9759 9.15385 30.8656C9.15385 30.7236 9.15618 30.582 9.15897 30.4406C9.16037 30.3741 9.16193 30.3077 9.16379 30.2412C9.16659 30.1492 9.17016 30.0572 9.17389 29.9655C9.1787 29.8554 9.18399 29.7452 9.19051 29.6354C9.19377 29.5798 9.19704 29.5242 9.20061 29.4686C9.2104 29.3214 9.22143 29.1745 9.23417 29.028C9.23619 29.005 9.2379 28.982 9.24007 28.9588C9.45602 26.5712 10.0703 24.2672 11.0739 22.0894C11.0837 22.0681 11.0904 22.0462 11.0977 22.0245C11.1555 21.9002 11.2149 21.7765 11.2753 21.6533C11.2919 21.6291 11.3071 21.6034 11.3205 21.5764C11.8018 20.6011 12.3532 19.6729 12.9706 18.7941C13.6605 17.8179 14.4389 16.8937 15.3019 16.0313C16.0452 15.2887 16.8341 14.6085 17.6628 13.9936C17.8107 13.8839 17.9598 13.7766 18.11 13.6711C18.118 13.6655 18.126 13.6602 18.1338 13.6548C18.2754 13.5558 18.4178 13.4585 18.5612 13.3633C18.5794 13.3512 18.5979 13.3395 18.6162 13.3276C18.7487 13.2403 18.882 13.1542 19.0163 13.07C19.0431 13.053 19.0705 13.0367 19.0974 13.02C19.223 12.942 19.3494 12.8651 19.4763 12.7899C19.5095 12.7703 19.5429 12.751 19.5762 12.7316C19.6981 12.6605 19.8207 12.5901 19.9439 12.5214C19.9803 12.5012 20.0166 12.4813 20.0531 12.4613C20.1752 12.3942 20.2978 12.3283 20.421 12.2638C20.4572 12.2449 20.4936 12.2261 20.5299 12.2074C20.6562 12.1422 20.7833 12.0782 20.911 12.0157C20.9432 11.9999 20.9752 11.9842 21.0074 11.9686C21.1439 11.9026 21.2813 11.838 21.4192 11.7749C21.4417 11.7646 21.4641 11.7542 21.4866 11.7441C21.642 11.6738 21.7981 11.6052 21.9554 11.5389C21.9599 11.5369 21.9645 11.535 21.9692 11.533C22.9814 11.1059 24.0296 10.7588 25.11 10.4935C25.1135 10.4927 25.1166 10.491 25.1202 10.4901C25.3334 10.438 25.5476 10.3897 25.7628 10.3443C28.6894 9.73518 31.6711 9.74077 34.5316 10.3526C34.535 10.3534 34.5388 10.353 34.5422 10.3537C34.7634 10.401 34.9834 10.4519 35.2018 10.5061C35.2988 10.53 35.3953 10.5547 35.4916 10.5799C35.6058 10.61 35.7198 10.6405 35.8332 10.6725C35.8616 10.6804 35.8898 10.6885 35.918 10.6964C43.3188 12.8167 49.0572 18.9055 50.6723 26.5002C50.6841 26.5563 50.697 26.6123 50.7083 26.6685C50.7232 26.7414 50.7364 26.8148 50.7504 26.888C50.772 27.0008 50.7939 27.1136 50.8137 27.2269C50.8194 27.2592 50.8242 27.2916 50.8298 27.324C51.0091 28.3827 51.1079 29.4591 51.1231 30.5491C51.1233 30.5631 51.1261 30.5767 51.127 30.5906C51.1283 30.6825 51.1304 30.774 51.1304 30.8662C51.1304 30.9383 51.1284 31.0099 51.1276 31.0818C51.1259 31.0991 51.123 31.1161 51.1228 31.1337C51.1102 32.227 51.0139 33.3061 50.8363 34.3677C50.8306 34.4019 50.8253 34.4362 50.8194 34.4704C50.7997 34.5844 50.7779 34.6981 50.7565 34.8117C50.7417 34.8884 50.7277 34.9655 50.7122 35.0419C50.6998 35.1041 50.686 35.1662 50.6727 35.2284C49.1292 42.4925 43.8139 48.3799 36.8791 50.7355C36.8651 50.74 36.8505 50.7447 36.8359 50.7496ZM52.3478 29.8038C52.3166 29.1425 52.2554 28.4889 52.1673 27.8436C52.1662 27.8356 52.165 27.8275 52.1641 27.8194C52.1434 27.6699 52.1219 27.521 52.0983 27.3724C52.0907 27.3247 52.0823 27.2772 52.0746 27.2295C52.0558 27.1158 52.0373 27.0021 52.0168 26.8888C51.7244 25.2679 51.2512 23.6867 50.5991 22.1578L58.3892 24.3968L52.3478 29.8038ZM52.7911 12.7973L49.6927 20.284C48.4391 17.982 46.764 15.8859 44.7972 14.1575L52.7911 12.7973ZM42.7113 4.76909L43.1696 12.8587C41.0233 11.3017 38.6544 10.1602 36.1099 9.45724L42.7113 4.76909ZM30.1484 1.90534L34.068 8.99209C33.4416 8.88007 32.8056 8.79602 32.1622 8.73776C32.1288 8.73466 32.0954 8.7317 32.062 8.72891C31.9365 8.71803 31.8109 8.70824 31.6849 8.69954C31.6237 8.69535 31.5625 8.69162 31.5013 8.68789C31.3961 8.68152 31.2911 8.67515 31.1858 8.67034C31.0926 8.66599 30.9997 8.66288 30.9064 8.65977C30.8278 8.65698 30.7494 8.65371 30.6704 8.65185C30.4943 8.64765 30.3181 8.64517 30.1421 8.64517C30.1418 8.64517 30.1413 8.64517 30.141 8.64517C29.9705 8.64517 29.7998 8.6475 29.6291 8.65138C29.5234 8.65371 29.4181 8.65806 29.3128 8.66195C29.255 8.66412 29.1973 8.66552 29.1395 8.66832C28.9907 8.67484 28.842 8.68339 28.6936 8.69286C28.686 8.69333 28.6784 8.6938 28.6708 8.69426C27.8485 8.74755 27.0346 8.84481 26.2323 8.98634L30.1484 1.90534ZM17.4689 4.82517L24.0805 9.47759C22.9811 9.78707 21.91 10.1815 20.8744 10.6566C20.8644 10.6611 20.8545 10.6658 20.8445 10.6703C20.7095 10.7324 20.5751 10.7961 20.4412 10.8611C20.422 10.8704 20.4029 10.8797 20.3837 10.8892C20.2551 10.9521 20.1271 11.016 19.9997 11.0814C19.9783 11.0924 19.957 11.1036 19.9357 11.1146C19.8083 11.1805 19.6814 11.2473 19.5552 11.3158C19.5398 11.3242 19.5246 11.3327 19.5092 11.3411C18.8303 11.7118 18.1696 12.1189 17.5293 12.5616C17.4976 12.5835 17.4656 12.605 17.4341 12.627C17.3482 12.6872 17.2629 12.7485 17.1777 12.8099C17.1344 12.8411 17.0904 12.8714 17.0472 12.9031L17.4689 4.82517ZM15.4018 14.2229C14.1077 15.369 12.9651 16.6461 11.9806 18.0413C11.9533 18.0799 11.9262 18.1184 11.8992 18.1569C11.8509 18.2264 11.803 18.296 11.7555 18.3661C11.3166 19.0082 10.9125 19.6701 10.5459 20.3505L7.42391 12.9016L15.4018 14.2229ZM9.63313 22.2611C8.81625 24.2062 8.28103 26.2686 8.04722 28.398C8.04644 28.4043 8.04582 28.4107 8.04504 28.4171C8.02888 28.5644 8.01428 28.7119 8.00107 28.86C7.99812 28.8929 7.99533 28.926 7.99253 28.9591C7.98181 29.0856 7.97187 29.2124 7.96332 29.3393C7.95882 29.4044 7.95524 29.4698 7.95136 29.535C7.94561 29.6323 7.93971 29.7294 7.9352 29.8268C7.93427 29.847 7.93272 29.8671 7.93194 29.8872L1.87631 24.5219L9.63313 22.2611ZM7.9394 31.9959C7.96332 32.4701 8.00372 32.9399 8.057 33.406C8.06135 33.4458 8.06602 33.4854 8.07068 33.5252C8.08326 33.6297 8.09631 33.734 8.11029 33.8382C8.12381 33.9398 8.13826 34.0413 8.15302 34.1426C8.16078 34.1948 8.16824 34.247 8.17632 34.299C8.45737 36.1256 8.96415 37.9023 9.69481 39.6111L1.92463 37.4033L7.9394 31.9959ZM10.6209 41.5076C11.5838 43.2678 12.7702 44.8801 14.1566 46.3118L13.7225 47.9232L7.54307 48.9891L10.6209 41.5076ZM22.5117 73.4751L17.9233 65.5276C17.8082 65.3283 17.5994 65.2168 17.3845 65.2168C17.2792 65.2168 17.1723 65.2436 17.0744 65.3002L9.11609 69.8936L15.1779 47.3023C17.4547 49.3752 20.121 50.937 23.0028 51.9116C23.0137 51.9153 23.0246 51.919 23.0353 51.9226C23.1791 51.9711 23.3235 52.018 23.4686 52.0635C23.5024 52.0741 23.5362 52.0851 23.57 52.0955C23.6945 52.1339 23.8192 52.1709 23.9443 52.2071C24.0868 52.2485 24.2298 52.288 24.3734 52.3267C24.4138 52.3374 24.4539 52.3489 24.4941 52.3595C24.6182 52.3921 24.7431 52.423 24.8681 52.4535C24.892 52.4592 24.9158 52.4651 24.9395 52.4709C25.0755 52.5035 25.2119 52.5349 25.3487 52.565C25.3506 52.5653 25.3523 52.5658 25.3543 52.5663C26.2209 52.7572 27.1062 52.8976 28.0071 52.9839L22.5117 73.4751ZM30.2124 59.8267L28.3582 56.488L29.2728 53.0709C29.3724 53.0743 29.4683 53.0769 29.563 53.0794C29.5675 53.0794 29.572 53.0796 29.5766 53.0797C29.9575 53.0889 30.3097 53.089 30.6964 53.0799C30.7062 53.0796 30.7163 53.0794 30.7262 53.0791C30.8187 53.0768 30.9123 53.0741 31.0099 53.0707L31.9682 56.6418L30.2124 59.8267ZM43.2102 65.3002C42.913 65.1285 42.533 65.2304 42.3613 65.5272L37.7642 73.476L33.2337 56.5623C33.2336 56.562 33.2336 56.5618 33.2336 56.5615L33.1918 56.4058L32.2753 52.984C33.3232 52.8838 34.35 52.7103 35.351 52.4693C35.367 52.4656 35.383 52.4614 35.399 52.4577C35.5315 52.4253 35.6636 52.3926 35.795 52.3579C35.8116 52.3537 35.8282 52.3489 35.8447 52.3444C36.0226 52.2972 36.1994 52.2479 36.3754 52.1965C36.4862 52.1642 36.5968 52.1316 36.707 52.0977C36.7477 52.0851 36.7881 52.0719 36.8286 52.0592C36.966 52.016 37.1028 51.9715 37.2392 51.9257C37.2558 51.9201 37.2725 51.9145 37.2891 51.9089C40.1678 50.9339 42.8316 49.3734 45.1059 47.3031L45.4354 48.5347C45.4366 48.5393 45.4387 48.5438 45.4402 48.5485L51.1614 69.8936L43.2102 65.3002ZM46.5335 47.8273L46.1274 46.3119C47.545 44.8466 48.7495 43.2001 49.7168 41.4053L52.8313 48.8852L46.5335 47.8273ZM50.623 39.521C51.1944 38.1707 51.6262 36.7792 51.9175 35.3558C51.919 35.3486 51.9208 35.3416 51.922 35.3345C51.952 35.1877 51.9801 35.0402 52.007 34.8926C52.1877 33.9101 52.3033 32.9053 52.3496 31.8825L58.4083 37.272L50.623 39.521Z" fill="#DDC8AE"/>
<path d="M30.1413 13.1204C25.3997 13.1204 20.9415 14.9664 17.5879 18.3182C14.2343 21.6703 12.3874 26.1263 12.3875 30.8658C12.3875 40.6506 20.3519 48.6115 30.1413 48.6115C39.9268 48.6115 47.8879 40.6508 47.8879 30.8658C47.8879 21.081 39.9268 13.1204 30.1413 13.1204ZM30.1413 47.3686C21.0372 47.3686 13.6304 39.9655 13.6304 30.8658C13.6304 26.4585 15.3479 22.3144 18.4666 19.1974C21.5855 16.0801 25.7315 14.3634 30.1413 14.3634C39.2415 14.3634 46.645 21.7663 46.645 30.8659C46.645 39.9654 39.2415 47.3686 30.1413 47.3686Z" fill="#DDC8AE"/>
<path d="M42.8239 26.7495C42.7408 26.4934 42.5021 26.32 42.2327 26.32C42.2324 26.32 42.2321 26.32 42.2318 26.32L33.4339 26.3338L30.7324 17.9669C30.6496 17.7104 30.4109 17.5364 30.1412 17.5364C30.1412 17.5364 30.1412 17.5364 30.1411 17.5364C29.8715 17.5364 29.6327 17.7101 29.5498 17.9666L26.8429 26.3338L18.0522 26.32C18.0519 26.32 18.0516 26.32 18.0512 26.32C17.782 26.32 17.5432 26.4934 17.4601 26.7495C17.3768 27.006 17.4685 27.2869 17.6871 27.4451L24.8103 32.5954L22.0741 40.9544C21.9902 41.2106 22.0811 41.4918 22.2994 41.6503C22.5174 41.8088 22.8129 41.8088 23.0308 41.6497L30.1409 36.4645L37.2437 41.6497C37.3527 41.7294 37.4814 41.7693 37.61 41.7693C37.738 41.7693 37.866 41.7298 37.9751 41.6508C38.1932 41.4923 38.2844 41.2114 38.2008 40.9549L35.4733 32.5956L42.5971 27.4451C42.8155 27.2871 42.9072 27.0062 42.8239 26.7495ZM34.3777 31.8539C34.159 32.0122 34.0673 32.2936 34.1511 32.5502L36.4226 39.5111L30.5077 35.1932C30.3985 35.1135 30.2699 35.0737 30.1412 35.0737C30.0127 35.0737 29.8841 35.1135 29.775 35.1931L23.8546 39.5108L26.1329 32.5508C26.2171 32.294 26.1255 32.0122 25.9064 31.8539L19.9758 27.5658L27.2941 27.5773C27.2944 27.5773 27.2947 27.5773 27.295 27.5773C27.5644 27.5773 27.8034 27.4036 27.8863 27.1471L30.1407 20.1786L32.3905 27.147C32.4733 27.4036 32.7123 27.5775 32.982 27.5775C32.9823 27.5775 32.9826 27.5775 32.9829 27.5775L40.3084 27.566L34.3777 31.8539Z" fill="#DDC8AE"/>
</svg>
