<svg width="70" height="56" viewBox="0 0 70 56" fill="none" xmlns="http://www.w3.org/2000/svg">
<path d="M34.8838 22.0938C33.3434 22.0955 31.8667 22.7082 30.7775 23.7974C29.6884 24.8866 29.0757 26.3633 29.074 27.9037V31.2939C29.074 32.8347 29.6861 34.3125 30.7756 35.402C31.8652 36.4916 33.3429 37.1037 34.8838 37.1037C36.4246 37.1037 37.9024 36.4916 38.9919 35.402C40.0815 34.3125 40.6936 32.8347 40.6936 31.2939V27.9037C40.6918 26.3633 40.0792 24.8866 38.99 23.7974C37.9009 22.7082 36.4241 22.0955 34.8838 22.0938V22.0938ZM39.2444 31.2939C39.2444 32.4504 38.785 33.5595 37.9672 34.3773C37.1494 35.1951 36.0403 35.6545 34.8838 35.6545C33.7273 35.6545 32.6181 35.1951 31.8003 34.3773C30.9826 33.5595 30.5231 32.4504 30.5231 31.2939V27.9037C30.5231 26.7472 30.9826 25.638 31.8003 24.8202C32.6181 24.0025 33.7273 23.543 34.8838 23.543C36.0403 23.543 37.1494 24.0025 37.9672 24.8202C38.785 25.638 39.2444 26.7472 39.2444 27.9037V31.2939Z" fill="#DDC8AE"/>
<path d="M52.9138 24.9668C51.496 24.9684 50.1368 25.5323 49.1343 26.5348C48.1318 27.5373 47.5679 28.8966 47.5663 30.3143V33.3962C47.5663 34.8144 48.1297 36.1746 49.1325 37.1775C50.1354 38.1803 51.4955 38.7437 52.9138 38.7437C54.332 38.7437 55.6922 38.1803 56.6951 37.1775C57.6979 36.1746 58.2613 34.8144 58.2613 33.3962V30.3143C58.2597 28.8966 57.6958 27.5373 56.6933 26.5348C55.6908 25.5323 54.3316 24.9684 52.9138 24.9668ZM56.8122 33.3961C56.8122 34.43 56.4014 35.4215 55.6704 36.1526C54.9393 36.8837 53.9477 37.2944 52.9138 37.2944C51.8799 37.2944 50.8883 36.8837 50.1572 36.1526C49.4262 35.4215 49.0154 34.43 49.0154 33.3961V30.3142C49.0154 29.2803 49.4262 28.2887 50.1572 27.5576C50.8883 26.8266 51.8799 26.4158 52.9138 26.4158C53.9477 26.4158 54.9393 26.8266 55.6704 27.5576C56.4014 28.2887 56.8122 29.2803 56.8122 30.3142V33.3961Z" fill="#DDC8AE"/>
<path d="M59.0774 39.8261H57.1292C56.9546 39.826 56.7873 39.7565 56.6638 39.6331C56.5404 39.5097 56.471 39.3424 56.4707 39.1679C56.4707 38.9973 56.4105 38.8322 56.3006 38.7016C56.1908 38.5711 56.0384 38.4834 55.8703 38.4542C55.7023 38.425 55.5293 38.456 55.3818 38.5418C55.2343 38.6276 55.1219 38.7626 55.0642 38.9232L54.2894 41.082C54.1879 41.3648 54.0011 41.6091 53.7549 41.7812C53.5086 41.9533 53.2149 42.0446 52.9145 42.0427C52.614 42.0408 52.3216 41.9456 52.0776 41.7704C51.8335 41.5951 51.6499 41.3484 51.5521 41.0643L50.8112 38.9148C50.7711 38.7986 50.7022 38.6945 50.6109 38.6123C50.5195 38.5301 50.4088 38.4725 50.289 38.4449C50.1693 38.4173 50.0445 38.4205 49.9264 38.4544C49.8083 38.4883 49.7007 38.5517 49.6138 38.6386L49.5963 38.656C49.4605 38.7918 49.3841 38.9761 49.3841 39.1682C49.3839 39.3428 49.3145 39.5101 49.191 39.6335C49.0676 39.7569 48.9003 39.8263 48.7257 39.8265H46.7494C46.4366 39.8266 46.1243 39.8504 45.8151 39.8978C44.638 38.953 43.1736 38.4385 41.6642 38.4395H39.5211C39.3098 38.4395 39.107 38.3556 38.9576 38.2061C38.8081 38.0566 38.7241 37.8539 38.7241 37.6425C38.7241 37.4719 38.6638 37.3068 38.554 37.1762C38.4442 37.0457 38.2918 36.9581 38.1237 36.9288C37.9556 36.8996 37.7826 36.9306 37.6352 37.0164C37.4877 37.1022 37.3752 37.2373 37.3176 37.3978L36.4658 39.7727C36.3491 40.0978 36.1343 40.3787 35.8511 40.5766C35.5679 40.7745 35.2303 40.8796 34.8848 40.8774C34.5393 40.8752 34.203 40.7658 33.9224 40.5643C33.6417 40.3628 33.4306 40.0791 33.318 39.7525L32.503 37.3873C32.4629 37.2711 32.3939 37.167 32.3025 37.0848C32.2111 37.0025 32.1002 36.9449 31.9804 36.9174C31.8606 36.8898 31.7357 36.8932 31.6176 36.9272C31.4994 36.9612 31.3919 37.0247 31.305 37.1118L31.2858 37.131C31.1503 37.2668 31.0742 37.4508 31.0742 37.6426C31.0742 37.854 30.9903 38.0567 30.8408 38.2062C30.6913 38.3557 30.4886 38.4397 30.2772 38.4397H28.1035C26.5938 38.4386 25.1291 38.9532 23.9519 39.8984C23.6429 39.8508 23.3308 39.8268 23.0182 39.8265H21.07C20.8954 39.8263 20.7281 39.7569 20.6047 39.6335C20.4812 39.5101 20.4118 39.3428 20.4116 39.1682C20.4115 38.9976 20.3513 38.8325 20.2415 38.702C20.1316 38.5714 19.9792 38.4838 19.8112 38.4546C19.6431 38.4253 19.4701 38.4563 19.3226 38.5421C19.1752 38.6279 19.0627 38.763 19.005 38.9236L18.2306 41.082C18.1291 41.3647 17.9423 41.609 17.696 41.7811C17.4497 41.9532 17.1561 42.0446 16.8556 42.0426C16.5552 42.0407 16.2627 41.9455 16.0187 41.7703C15.7746 41.5951 15.591 41.3484 15.4931 41.0643L14.7522 38.9148C14.7122 38.7985 14.6432 38.6944 14.5519 38.6122C14.4605 38.53 14.3497 38.4724 14.23 38.4448C14.1102 38.4172 13.9854 38.4205 13.8672 38.4544C13.7491 38.4883 13.6415 38.5517 13.5546 38.6387L13.5372 38.6561C13.4015 38.7919 13.3252 38.9762 13.3252 39.1682C13.325 39.3428 13.2556 39.5101 13.1322 39.6335C13.0088 39.7569 12.8414 39.8263 12.6669 39.8265H10.6904C9.06838 39.8284 7.51335 40.4735 6.36639 41.6204C5.21944 42.7673 4.57422 44.3223 4.57227 45.9443V54.4197C4.57227 54.6118 4.64861 54.7961 4.78449 54.932C4.92038 55.0679 5.10467 55.1442 5.29685 55.1442H64.4708C64.663 55.1442 64.8473 55.0679 64.9832 54.932C65.1191 54.7961 65.1954 54.6118 65.1954 54.4197V45.9443C65.1936 44.3222 64.5484 42.7671 63.4015 41.6202C62.2545 40.4732 60.6995 39.828 59.0774 39.8261ZM21.4461 45.0967V53.6951H6.02142V45.9443C6.02283 44.7064 6.51519 43.5197 7.39048 42.6444C8.26577 41.7691 9.45252 41.2767 10.6904 41.2753H12.6667C13.108 41.2759 13.5383 41.1372 13.8962 40.879L14.1228 41.537C14.3185 42.1047 14.6856 42.5977 15.1734 42.9479C15.6612 43.2981 16.2457 43.4882 16.8462 43.492C17.4467 43.4958 18.0336 43.3132 18.5258 42.9692C19.018 42.6252 19.3914 42.137 19.5942 41.5718L19.8424 40.8804C20.181 41.1243 20.5847 41.2616 21.0017 41.2747C21.0149 41.2747 21.0283 41.2757 21.0417 41.2757H22.6568C21.868 42.3936 21.4451 43.7285 21.4461 45.0967V45.0967ZM46.8724 53.6951H22.8953V45.0967C22.8969 43.716 23.4461 42.3922 24.4225 41.4158C25.3989 40.4395 26.7227 39.8903 28.1035 39.8887H30.2772C30.7812 39.8893 31.2706 39.7195 31.666 39.407L31.9477 40.2249C32.158 40.8353 32.5527 41.3653 33.0771 41.7418C33.6015 42.1183 34.2299 42.3227 34.8754 42.3268C35.521 42.3309 36.1519 42.1345 36.681 41.7647C37.2102 41.3949 37.6115 40.87 37.8296 40.2623L38.1357 39.4093C38.5112 39.7051 38.9716 39.8727 39.4494 39.8875C39.4629 39.8883 39.4766 39.8887 39.4902 39.8887H41.664C43.0448 39.8903 44.3686 40.4395 45.345 41.4159C46.3214 42.3923 46.8706 43.7162 46.8721 45.097L46.8724 53.6951ZM63.7463 53.6951H48.3215V45.0967C48.3226 43.7284 47.8996 42.3933 47.1106 41.2753H48.7257C49.167 41.2759 49.5972 41.1372 49.9551 40.879L50.1818 41.537C50.3774 42.1047 50.7445 42.5977 51.2324 42.9479C51.7202 43.2981 52.3047 43.4882 52.9052 43.492C53.5056 43.4958 54.0925 43.3132 54.5847 42.9692C55.077 42.6252 55.4503 42.137 55.6532 41.5718L55.9014 40.8804C56.24 41.1243 56.6436 41.2616 57.0607 41.2747C57.0738 41.2747 57.0872 41.2757 57.1005 41.2757H59.0769C60.3148 41.277 61.5016 41.7692 62.3769 42.6445C63.2523 43.5197 63.7447 44.7064 63.7463 45.9443V53.6951Z" fill="#DDC8AE"/>
<path d="M11.5067 30.3143V33.3962C11.5067 34.0984 11.645 34.7938 11.9138 35.4426C12.1825 36.0914 12.5764 36.6809 13.073 37.1775C13.5695 37.674 14.159 38.0679 14.8078 38.3367C15.4566 38.6054 16.152 38.7437 16.8542 38.7437C17.5565 38.7437 18.2518 38.6054 18.9006 38.3367C19.5494 38.0679 20.1389 37.674 20.6355 37.1775C21.1321 36.6809 21.526 36.0914 21.7947 35.4426C22.0634 34.7938 22.2017 34.0984 22.2017 33.3962V30.3143C22.2017 28.8961 21.6383 27.5359 20.6355 26.533C19.6326 25.5302 18.2725 24.9668 16.8542 24.9668C15.436 24.9668 14.0758 25.5302 13.073 26.533C12.0701 27.5359 11.5067 28.8961 11.5067 30.3143V30.3143ZM20.7526 30.3143V33.3962C20.7526 34.4301 20.3419 35.4217 19.6108 36.1527C18.8797 36.8838 17.8881 37.2945 16.8542 37.2945C15.8203 37.2945 14.8288 36.8838 14.0977 36.1527C13.3666 35.4217 12.9559 34.4301 12.9559 33.3962V30.3143C12.9559 29.2804 13.3666 28.2888 14.0977 27.5578C14.8288 26.8267 15.8203 26.416 16.8542 26.416C17.8881 26.416 18.8797 26.8267 19.6108 27.5578C20.3419 28.2888 20.7526 29.2804 20.7526 30.3143V30.3143Z" fill="#DDC8AE"/>
<path d="M29.2975 12.4995L28.3153 18.1404C28.2828 18.3271 28.3033 18.5192 28.3743 18.695C28.4453 18.8707 28.5641 19.0231 28.7172 19.1349C28.8703 19.2467 29.0516 19.3134 29.2406 19.3275C29.4296 19.3416 29.6188 19.3026 29.7868 19.2148L34.8611 16.5628L39.9224 19.2394C40.09 19.328 40.2789 19.3679 40.468 19.3547C40.657 19.3415 40.8386 19.2757 40.9922 19.1648C41.1459 19.0538 41.2654 18.9021 41.3373 18.7267C41.4092 18.5514 41.4307 18.3594 41.3992 18.1726L40.445 12.5271L44.5545 8.54058C44.6906 8.40858 44.787 8.24115 44.8329 8.05721C44.8788 7.87327 44.8723 7.68016 44.8141 7.49973C44.756 7.31929 44.6485 7.15871 44.5039 7.03615C44.3593 6.9136 44.1832 6.83395 43.9957 6.80622L38.3323 5.96867L35.8109 0.828234C35.7274 0.658052 35.5979 0.514624 35.4372 0.414165C35.2764 0.313707 35.0908 0.260225 34.9012 0.259766H34.8987C34.7095 0.259771 34.5241 0.312591 34.3633 0.412278C34.2025 0.511964 34.0728 0.654558 33.9886 0.824001L31.4425 5.95191L25.7742 6.76151C25.5865 6.78832 25.4101 6.86711 25.2649 6.98896C25.1196 7.11081 25.0114 7.27086 24.9523 7.45102C24.8933 7.63119 24.8859 7.82427 24.9309 8.00843C24.9759 8.1926 25.0715 8.36051 25.2069 8.49317L29.2975 12.4995ZM32.2585 7.88812C32.4216 7.86483 32.5766 7.80222 32.7101 7.70569C32.8436 7.60917 32.9517 7.48162 33.0249 7.33405L34.8932 3.57152L36.7433 7.34251C36.8158 7.49039 36.9232 7.61841 37.0562 7.71556C37.1892 7.8127 37.3439 7.87605 37.5068 7.90014L41.6627 8.51416L38.6473 11.4405C38.5291 11.5552 38.4405 11.697 38.3892 11.8535C38.338 12.0101 38.3255 12.1768 38.353 12.3392L39.0532 16.4814L35.3394 14.517C35.1938 14.44 35.0317 14.3996 34.8669 14.3992C34.7022 14.3989 34.5398 14.4385 34.3939 14.5148L30.6708 16.4605L31.391 12.3217C31.4192 12.1595 31.4075 11.9928 31.357 11.836C31.3065 11.6792 31.2186 11.5371 31.1009 11.4219L28.0999 8.48216L32.2585 7.88812Z" fill="#DDC8AE"/>
<path d="M55.6951 16.2241L54.8327 21.1798C54.8002 21.3666 54.8206 21.5587 54.8916 21.7345C54.9626 21.9102 55.0814 22.0626 55.2345 22.1744C55.3876 22.2862 55.5689 22.353 55.7579 22.3671C55.947 22.3812 56.1362 22.3422 56.3042 22.2544L60.7622 19.9245L65.2087 22.2759C65.3763 22.3645 65.5652 22.4044 65.7543 22.3912C65.9433 22.3781 66.1249 22.3123 66.2785 22.2013C66.4322 22.0903 66.5517 21.9386 66.6236 21.7633C66.6955 21.5879 66.717 21.396 66.6855 21.2091L65.8473 16.2495L69.4576 12.7471C69.5937 12.6151 69.6901 12.4476 69.736 12.2637C69.7818 12.0798 69.7753 11.8867 69.7172 11.7062C69.6591 11.5258 69.5516 11.3652 69.407 11.2426C69.2623 11.1201 69.0863 11.0404 68.8988 11.0127L63.9229 10.2774L61.7078 5.76085C61.6243 5.59064 61.4948 5.4472 61.334 5.34674C61.1732 5.24628 60.9876 5.19281 60.798 5.19238H60.7956C60.6064 5.19239 60.421 5.24521 60.2602 5.34489C60.0994 5.44458 59.9697 5.58718 59.8856 5.75662L57.6486 10.261L52.6692 10.9722C52.4816 10.999 52.3051 11.0778 52.1599 11.1996C52.0147 11.3215 51.9064 11.4815 51.8474 11.6616C51.7884 11.8418 51.7809 12.0348 51.8259 12.219C51.8708 12.4031 51.9664 12.571 52.1018 12.7037L55.6951 16.2241ZM58.4645 12.1977C58.6276 12.1744 58.7826 12.1118 58.9161 12.0153C59.0496 11.9188 59.1577 11.7912 59.2309 11.6437L60.7898 8.50413L62.3337 11.6513C62.4062 11.7992 62.5136 11.9272 62.6467 12.0243C62.7797 12.1215 62.9343 12.1848 63.0972 12.2089L66.565 12.7213L64.0489 15.1622C63.9307 15.2769 63.8422 15.4186 63.7909 15.5751C63.7396 15.7316 63.7272 15.8983 63.7546 16.0607L64.3388 19.5172L61.2399 17.8785C61.0943 17.8014 60.9322 17.7609 60.7674 17.7605C60.6027 17.7601 60.4403 17.7998 60.2944 17.8762L57.1877 19.4998L57.7886 16.0453C57.8169 15.883 57.8052 15.7163 57.7547 15.5596C57.7041 15.4028 57.6162 15.2607 57.4986 15.1454L54.9944 12.6937L58.4645 12.1977Z" fill="#DDC8AE"/>
<path d="M3.89827 16.2241L3.036 21.1798C3.00349 21.3666 3.02389 21.5587 3.0949 21.7345C3.16591 21.9103 3.2847 22.0628 3.43782 22.1746C3.59094 22.2864 3.7723 22.3531 3.96137 22.3672C4.15044 22.3813 4.33969 22.3423 4.50772 22.2544L8.96555 19.9245L13.4125 22.2759C13.5801 22.3645 13.7691 22.4045 13.9582 22.3914C14.1472 22.3782 14.3289 22.3124 14.4825 22.2014C14.6362 22.0904 14.7557 21.9387 14.8276 21.7633C14.8995 21.588 14.921 21.396 14.8895 21.2091L14.0511 16.2495L17.6614 12.7471C17.7975 12.6151 17.8939 12.4476 17.9398 12.2637C17.9857 12.0798 17.9792 11.8867 17.921 11.7062C17.8629 11.5258 17.7554 11.3652 17.6108 11.2426C17.4662 11.1201 17.2901 11.0404 17.1026 11.0127L12.1256 10.2768L9.9108 5.76085C9.8273 5.59067 9.69785 5.44724 9.53709 5.34678C9.37633 5.24632 9.19068 5.19284 9.00111 5.19238H8.99857C8.8094 5.19239 8.62398 5.24521 8.4632 5.34489C8.30242 5.44458 8.17267 5.58718 8.08855 5.75662L5.85159 10.261L0.872192 10.9722C0.68455 10.9991 0.508156 11.0779 0.36295 11.1997C0.217743 11.3215 0.109515 11.4816 0.0504994 11.6617C-0.00851621 11.8418 -0.0159657 12.0349 0.0289924 12.219C0.0739505 12.4032 0.169524 12.5711 0.304908 12.7037L3.89827 16.2241ZM6.6678 12.1977C6.831 12.1746 6.98612 12.112 7.11976 12.0155C7.25341 11.919 7.36156 11.7915 7.4349 11.6438L8.994 8.5043L10.5377 11.6515C10.6102 11.7994 10.7177 11.9274 10.8507 12.0245C10.9838 12.1217 11.1384 12.185 11.3014 12.2091L14.7691 12.7215L12.2531 15.1623C12.1348 15.277 12.0463 15.4187 11.995 15.5753C11.9437 15.7318 11.9312 15.8984 11.9586 16.0609L12.5428 19.5174L9.44393 17.8787C9.29834 17.8016 9.13618 17.7611 8.97143 17.7607C8.80669 17.7603 8.64432 17.8 8.49835 17.8763L5.39099 19.4998L5.9918 16.0453C6.02003 15.883 6.00839 15.7163 5.95789 15.5596C5.90738 15.4028 5.81953 15.2607 5.70189 15.1454L3.19772 12.6937L6.6678 12.1977Z" fill="#DDC8AE"/>
</svg>
