<svg width="69" height="77" viewBox="0 0 69 77" fill="none" xmlns="http://www.w3.org/2000/svg">
<path fill-rule="evenodd" clip-rule="evenodd" d="M51.25 27.488L54.4547 29.9236C55.5761 30.7784 56.6004 31.7536 57.5093 32.8317C58.6886 34.1836 59.4593 35.843 59.7313 37.6163L58.99 37.7301H59.74V51.5451L55.4 49.3292V40.7936L51.25 43.6036V27.488ZM58.24 37.7885C58.0034 36.3153 57.3574 34.9378 56.3752 33.8135L56.3663 33.8033C55.5272 32.8073 54.5814 31.9064 53.5457 31.1168C53.5456 31.1167 53.5459 31.1169 53.5457 31.1168L52.75 30.5121V40.7765L56.9 37.9665V48.4109L58.24 49.095V37.7885Z" fill="#DDC8AE"/>
<path fill-rule="evenodd" clip-rule="evenodd" d="M55.4 47.645L59.3282 49.6506L59.7496 49.8613C61.4912 50.7458 63.1383 51.8049 64.6659 53.0223C66.2634 54.2817 67.1591 55.5525 67.6564 56.5334C67.9045 57.0225 68.0518 57.4364 68.1382 57.7367C68.1814 57.8868 68.2094 58.0085 68.2271 58.097C68.2359 58.1412 68.2422 58.1772 68.2466 58.2044C68.2487 58.2179 68.2504 58.2293 68.2517 58.2383L68.2533 58.2502L68.2539 58.2548L68.2542 58.2568C68.2542 58.2572 68.2544 58.2586 67.51 58.35L68.2544 58.2586L68.26 58.3041V76.48H55.4V47.645ZM66.76 58.4106C66.7589 58.4047 66.7576 58.3982 66.7562 58.391C66.7462 58.3412 66.7279 58.2599 66.6968 58.1515C66.6344 57.9349 66.5205 57.61 66.3186 57.2117C65.9161 56.4179 65.1572 55.3193 63.7358 54.1991L63.7325 54.1965C62.2846 53.0425 60.7233 52.0384 59.0725 51.1998L58.6489 50.988L56.9 50.0951V74.98H66.76V58.4106Z" fill="#DDC8AE"/>
<path fill-rule="evenodd" clip-rule="evenodd" d="M43.99 9.69409L47.1927 12.1121C48.3197 12.9654 49.3452 13.9449 50.2492 15.0316C51.4305 16.3669 52.2049 18.0125 52.481 19.774L51.74 19.8901H52.49V42.768L43.99 48.5237V9.69409ZM50.99 19.9498C50.7502 18.4892 50.1017 17.1258 49.1189 16.0178L49.1109 16.0087L49.1031 15.9994C48.2708 14.9976 47.3261 14.0946 46.2878 13.3084C46.2876 13.3083 46.2879 13.3085 46.2878 13.3084L45.49 12.7061V45.6965L50.99 41.9722V19.9498Z" fill="#DDC8AE"/>
<path fill-rule="evenodd" clip-rule="evenodd" d="M44.3838 12.6345L34.0338 6.84448L34.7662 5.5354L45.1162 11.3254L44.3838 12.6345Z" fill="#DDC8AE"/>
<path fill-rule="evenodd" clip-rule="evenodd" d="M44.3838 17.9045L34.0338 12.1145L34.7662 10.8054L45.1162 16.5954L44.3838 17.9045Z" fill="#DDC8AE"/>
<path fill-rule="evenodd" clip-rule="evenodd" d="M44.3838 23.1745L34.0338 17.3845L34.7662 16.0754L45.1162 21.8654L44.3838 23.1745Z" fill="#DDC8AE"/>
<path fill-rule="evenodd" clip-rule="evenodd" d="M44.3834 28.4442L34.0334 22.6442L34.7666 21.3357L45.1166 27.1357L44.3834 28.4442Z" fill="#DDC8AE"/>
<path fill-rule="evenodd" clip-rule="evenodd" d="M44.3834 33.7143L34.0334 27.9143L34.7666 26.6057L45.1166 32.4057L44.3834 33.7143Z" fill="#DDC8AE"/>
<path fill-rule="evenodd" clip-rule="evenodd" d="M44.3834 38.9843L34.0334 33.1843L34.7666 31.8757L45.1166 37.6757L44.3834 38.9843Z" fill="#DDC8AE"/>
<path fill-rule="evenodd" clip-rule="evenodd" d="M44.3834 44.2543L34.0334 38.4543L34.7666 37.1458L45.1166 42.9458L44.3834 44.2543Z" fill="#DDC8AE"/>
<path fill-rule="evenodd" clip-rule="evenodd" d="M34.7664 42.4155L43.6964 47.4155L42.9636 48.7243L34.0336 43.7243L34.7664 42.4155Z" fill="#DDC8AE"/>
<path fill-rule="evenodd" clip-rule="evenodd" d="M34.767 47.6858L39.437 50.3058L38.703 51.614L34.033 48.994L34.767 47.6858Z" fill="#DDC8AE"/>
<path fill-rule="evenodd" clip-rule="evenodd" d="M56.9 37.9663V76.4799H33.65V53.7325L42.9103 47.4483L44.0783 46.6597L44.0803 46.6583L44.3283 46.4897L51.3161 41.7512L51.5795 41.5688L56.9 37.9663ZM52.4237 42.8088L52.161 42.9907L44.9217 47.9001L44.9197 47.9015L43.7511 48.6905L35.15 54.5273V74.9799H55.4V40.7935L52.4237 42.8088Z" fill="#DDC8AE"/>
<path fill-rule="evenodd" clip-rule="evenodd" d="M58.5 60.89V52.46H60V60.89H58.5Z" fill="#DDC8AE"/>
<path fill-rule="evenodd" clip-rule="evenodd" d="M61.09 60.89V54.04H62.59V60.89H61.09Z" fill="#DDC8AE"/>
<path fill-rule="evenodd" clip-rule="evenodd" d="M63.68 60.94V56.73H65.18V60.94H63.68Z" fill="#DDC8AE"/>
<path fill-rule="evenodd" clip-rule="evenodd" d="M58.5 68.44V64.23H60V68.44H58.5Z" fill="#DDC8AE"/>
<path fill-rule="evenodd" clip-rule="evenodd" d="M61.09 68.44V64.23H62.59V68.44H61.09Z" fill="#DDC8AE"/>
<path fill-rule="evenodd" clip-rule="evenodd" d="M63.68 68.44V64.23H65.18V68.44H63.68Z" fill="#DDC8AE"/>
<path fill-rule="evenodd" clip-rule="evenodd" d="M58.5 75.47V71.26H60V75.47H58.5Z" fill="#DDC8AE"/>
<path fill-rule="evenodd" clip-rule="evenodd" d="M61.09 75.47V71.26H62.59V75.47H61.09Z" fill="#DDC8AE"/>
<path fill-rule="evenodd" clip-rule="evenodd" d="M63.68 75.47V71.26H65.18V75.47H63.68Z" fill="#DDC8AE"/>
<path fill-rule="evenodd" clip-rule="evenodd" d="M42.3 60.1901V53.6101H43.8V60.1901H42.3Z" fill="#DDC8AE"/>
<path fill-rule="evenodd" clip-rule="evenodd" d="M37.92 60.19V56.5H39.42V60.19H37.92Z" fill="#DDC8AE"/>
<path fill-rule="evenodd" clip-rule="evenodd" d="M46.67 60.1899V49.9199H48.17V60.1899H46.67Z" fill="#DDC8AE"/>
<path fill-rule="evenodd" clip-rule="evenodd" d="M37.76 64.73V62.73H39.26V64.73H37.76Z" fill="#DDC8AE"/>
<path fill-rule="evenodd" clip-rule="evenodd" d="M42.21 64.73V62.73H43.71V64.73H42.21Z" fill="#DDC8AE"/>
<path fill-rule="evenodd" clip-rule="evenodd" d="M46.63 64.73V62.73H48.13V64.73H46.63Z" fill="#DDC8AE"/>
<path fill-rule="evenodd" clip-rule="evenodd" d="M37.76 68.2599V66.1699H39.26V68.2599H37.76Z" fill="#DDC8AE"/>
<path fill-rule="evenodd" clip-rule="evenodd" d="M42.21 68.2599V66.1699H43.71V68.2599H42.21Z" fill="#DDC8AE"/>
<path fill-rule="evenodd" clip-rule="evenodd" d="M46.63 68.2599V66.1699H48.13V68.2599H46.63Z" fill="#DDC8AE"/>
<path fill-rule="evenodd" clip-rule="evenodd" d="M37.76 75.4699V69.6699H39.26V75.4699H37.76Z" fill="#DDC8AE"/>
<path fill-rule="evenodd" clip-rule="evenodd" d="M42.21 75.4699V69.6699H43.71V75.4699H42.21Z" fill="#DDC8AE"/>
<path fill-rule="evenodd" clip-rule="evenodd" d="M46.63 75.4699V69.6699H48.13V75.4699H46.63Z" fill="#DDC8AE"/>
<path fill-rule="evenodd" clip-rule="evenodd" d="M51.05 60.19V46.73H52.55V60.19H51.05Z" fill="#DDC8AE"/>
<path fill-rule="evenodd" clip-rule="evenodd" d="M51.05 64.73V62.73H52.55V64.73H51.05Z" fill="#DDC8AE"/>
<path fill-rule="evenodd" clip-rule="evenodd" d="M51.05 68.2599V66.1699H52.55V68.2599H51.05Z" fill="#DDC8AE"/>
<path fill-rule="evenodd" clip-rule="evenodd" d="M51.05 75.4699V69.6699H52.55V75.4699H51.05Z" fill="#DDC8AE"/>
<path fill-rule="evenodd" clip-rule="evenodd" d="M17.74 27.4543V43.734L13.4 40.794V49.3297L9.25 51.4439V37.6695L9.25971 37.6098C9.54566 35.8501 10.323 34.2072 11.502 32.8702C12.4093 31.7942 13.4315 30.8208 14.5505 29.9673L17.74 27.4543ZM16.24 30.5458L15.4647 31.1566C14.4288 31.9462 13.4828 32.8471 12.6436 33.8433L12.6379 33.85L12.632 33.8567C11.6502 34.9679 10.9986 36.3309 10.75 37.792V48.9963L11.9 48.4104V37.9661L16.24 40.9061V30.5458Z" fill="#DDC8AE"/>
<path fill-rule="evenodd" clip-rule="evenodd" d="M13.4 47.6462V76.48H0.510002V58.301L0.51639 58.2524L1.26 58.35C0.51639 58.2524 0.516333 58.2528 0.51639 58.2524L0.516622 58.2506L0.516889 58.2486L0.517525 58.244L0.519241 58.2322C0.520592 58.2232 0.522369 58.2119 0.524648 58.1983C0.529205 58.1713 0.535774 58.1354 0.544967 58.0912C0.563352 58.0028 0.592245 57.8813 0.636558 57.7315C0.725204 57.4316 0.875539 57.0182 1.12673 56.5296C1.63029 55.5501 2.53295 54.2804 4.1346 53.0219C5.66194 51.8047 7.30892 50.7458 9.05022 49.8614C9.05027 49.8614 9.05016 49.8614 9.05022 49.8614L13.4 47.6462ZM2.01 58.414V74.98H11.9V50.0938L9.72979 51.1986C8.07823 52.0375 6.516 53.042 5.06747 54.1965L5.06329 54.1999C3.63627 55.3208 2.86949 56.4204 2.46077 57.2154C2.25572 57.6143 2.13918 57.9397 2.07501 58.1567C2.04292 58.2653 2.02392 58.3468 2.01351 58.3968C2.01221 58.403 2.01104 58.4088 2.01 58.414Z" fill="#DDC8AE"/>
<path fill-rule="evenodd" clip-rule="evenodd" d="M24.79 9.67261V48.5136L16.29 42.7579V19.8288L16.2999 19.7685C16.5886 18.0101 17.3655 16.3683 18.542 15.0302C19.4519 13.9536 20.4793 12.9821 21.605 12.1337L24.79 9.67261ZM23.29 12.7273L22.5113 13.3291C21.4716 14.1122 20.5229 15.0094 19.683 16.0039L19.678 16.0098L19.6729 16.0156C18.6927 17.1287 18.0411 18.4916 17.79 19.9525V41.9621L23.29 45.6864V12.7273Z" fill="#DDC8AE"/>
<path fill-rule="evenodd" clip-rule="evenodd" d="M33.65 2.73818L25.05 7.7126V46.8824L33.65 52.7151V2.73818ZM34.3331 0.731963C34.4731 0.730766 34.611 0.765875 34.7334 0.833866C34.8557 0.901831 34.9584 1.00036 35.0314 1.11991C35.1044 1.23945 35.1451 1.37582 35.1496 1.5157L35.15 1.52784V55.5449L23.55 47.6776V6.84738L33.9345 0.840773C34.0557 0.770698 34.1931 0.733161 34.3331 0.731963Z" fill="#DDC8AE"/>
<path fill-rule="evenodd" clip-rule="evenodd" d="M11.9 37.9661L17.4083 41.6975L17.4709 41.7393L24.4669 46.4833L24.7239 46.6613L35.15 53.7325V76.48H11.9V37.9661ZM13.4 40.794V74.98H33.65V54.5276L23.8731 47.8967L23.6161 47.7188L16.6315 42.9824L16.5694 42.941L13.4 40.794Z" fill="#DDC8AE"/>
<path fill-rule="evenodd" clip-rule="evenodd" d="M8.76 60.89V52.46H10.26V60.89H8.76Z" fill="#DDC8AE"/>
<path fill-rule="evenodd" clip-rule="evenodd" d="M6.2 60.89V54.04H7.7V60.89H6.2Z" fill="#DDC8AE"/>
<path fill-rule="evenodd" clip-rule="evenodd" d="M3.62 60.94V56.73H5.12V60.94H3.62Z" fill="#DDC8AE"/>
<path fill-rule="evenodd" clip-rule="evenodd" d="M8.76 68.44V64.23H10.26V68.44H8.76Z" fill="#DDC8AE"/>
<path fill-rule="evenodd" clip-rule="evenodd" d="M6.2 68.44V64.23H7.7V68.44H6.2Z" fill="#DDC8AE"/>
<path fill-rule="evenodd" clip-rule="evenodd" d="M3.62 68.44V64.23H5.12V68.44H3.62Z" fill="#DDC8AE"/>
<path fill-rule="evenodd" clip-rule="evenodd" d="M8.76 75.47V71.26H10.26V75.47H8.76Z" fill="#DDC8AE"/>
<path fill-rule="evenodd" clip-rule="evenodd" d="M6.2 75.47V71.26H7.7V75.47H6.2Z" fill="#DDC8AE"/>
<path fill-rule="evenodd" clip-rule="evenodd" d="M3.62 75.47V71.26H5.12V75.47H3.62Z" fill="#DDC8AE"/>
<path fill-rule="evenodd" clip-rule="evenodd" d="M25 60.1901V53.6101H26.5V60.1901H25Z" fill="#DDC8AE"/>
<path fill-rule="evenodd" clip-rule="evenodd" d="M29.38 60.19V56.5H30.88V60.19H29.38Z" fill="#DDC8AE"/>
<path fill-rule="evenodd" clip-rule="evenodd" d="M20.63 60.1899V49.9199H22.13V60.1899H20.63Z" fill="#DDC8AE"/>
<path fill-rule="evenodd" clip-rule="evenodd" d="M29.51 64.73V62.73H31.01V64.73H29.51Z" fill="#DDC8AE"/>
<path fill-rule="evenodd" clip-rule="evenodd" d="M25.09 64.73V62.73H26.59V64.73H25.09Z" fill="#DDC8AE"/>
<path fill-rule="evenodd" clip-rule="evenodd" d="M20.67 64.73V62.73H22.17V64.73H20.67Z" fill="#DDC8AE"/>
<path fill-rule="evenodd" clip-rule="evenodd" d="M29.51 68.2599V66.1699H31.01V68.2599H29.51Z" fill="#DDC8AE"/>
<path fill-rule="evenodd" clip-rule="evenodd" d="M25.09 68.2599V66.1699H26.59V68.2599H25.09Z" fill="#DDC8AE"/>
<path fill-rule="evenodd" clip-rule="evenodd" d="M20.67 68.2599V66.1699H22.17V68.2599H20.67Z" fill="#DDC8AE"/>
<path fill-rule="evenodd" clip-rule="evenodd" d="M29.51 75.4699V69.6699H31.01V75.4699H29.51Z" fill="#DDC8AE"/>
<path fill-rule="evenodd" clip-rule="evenodd" d="M25.09 75.4699V69.6699H26.59V75.4699H25.09Z" fill="#DDC8AE"/>
<path fill-rule="evenodd" clip-rule="evenodd" d="M20.67 75.4699V69.6699H22.17V75.4699H20.67Z" fill="#DDC8AE"/>
<path fill-rule="evenodd" clip-rule="evenodd" d="M16.25 60.19V46.73H17.75V60.19H16.25Z" fill="#DDC8AE"/>
<path fill-rule="evenodd" clip-rule="evenodd" d="M16.25 64.73V62.73H17.75V64.73H16.25Z" fill="#DDC8AE"/>
<path fill-rule="evenodd" clip-rule="evenodd" d="M16.25 68.2599V66.1699H17.75V68.2599H16.25Z" fill="#DDC8AE"/>
<path fill-rule="evenodd" clip-rule="evenodd" d="M16.25 75.4699V69.6699H17.75V75.4699H16.25Z" fill="#DDC8AE"/>
</svg>
