<svg width="27" height="16" viewBox="0 0 27 16" fill="none" xmlns="http://www.w3.org/2000/svg">
<path d="M26.8584 13.9132C26.825 13.8416 26.7964 13.7844 26.7662 13.7382C26.297 12.8952 25.4015 11.8598 24.0813 10.6319L24.0527 10.6016L24.0383 10.5889L24.024 10.5746H24.0113C23.4101 10.002 23.0299 9.61866 22.8709 9.42143C22.5798 9.04764 22.513 8.6659 22.6736 8.28258C22.785 7.9915 23.2081 7.37913 23.9397 6.44069C24.3246 5.94443 24.63 5.54679 24.8543 5.24617C26.4751 3.09094 27.1781 1.71191 26.9618 1.11227L26.8791 0.972298C26.8234 0.887997 26.6771 0.810059 26.4433 0.740074C26.2095 0.670089 25.9089 0.657364 25.5446 0.705081L21.495 0.733711C21.4298 0.711443 21.3344 0.711444 21.2151 0.740074C21.0926 0.768704 21.0322 0.783019 21.0322 0.783019L20.9606 0.818012L20.9049 0.860957C20.8588 0.887997 20.8063 0.937305 20.7506 1.00729C20.695 1.07728 20.6472 1.15999 20.6107 1.25383C20.1701 2.38791 19.6674 3.44246 19.106 4.41589C18.7576 4.99804 18.4395 5.50225 18.1485 5.92694C17.8574 6.3548 17.614 6.66814 17.4168 6.87014C17.2211 7.07056 17.043 7.23439 16.8839 7.35368C16.7233 7.47615 16.6024 7.52705 16.5181 7.50956C16.4354 7.49047 16.3543 7.47138 16.2811 7.4523C16.1491 7.36799 16.0441 7.25347 15.9646 7.10873C15.8835 6.96399 15.831 6.78107 15.8024 6.55998C15.7737 6.33889 15.7578 6.14962 15.753 5.99056C15.7499 5.8315 15.7515 5.60564 15.761 5.31615C15.769 5.02508 15.7753 4.82785 15.7753 4.72605C15.7753 4.36976 15.7817 3.98325 15.796 3.56652C15.8103 3.14979 15.823 2.81895 15.831 2.5756C15.8389 2.33224 15.8453 2.07457 15.8453 1.80258C15.8453 1.53218 15.8278 1.31904 15.796 1.16317C15.7642 1.00888 15.7133 0.859367 15.6481 0.713034C15.5813 0.568292 15.4842 0.455361 15.357 0.375832C15.2313 0.296304 15.0755 0.23268 14.8878 0.184963C14.3899 0.0720322 13.7585 0.0115908 12.9902 0.00204735C11.2454 -0.0170395 10.1256 0.0974816 9.62934 0.339249C9.43369 0.444227 9.25396 0.584198 9.0949 0.762342C8.92789 0.969117 8.90403 1.08205 9.02492 1.09954C9.58798 1.18384 9.98562 1.38585 10.221 1.70396L10.3053 1.87256C10.3705 1.99345 10.4373 2.20976 10.501 2.51834C10.5678 2.8285 10.6091 3.17047 10.6282 3.54585C10.6743 4.22979 10.6743 4.81512 10.6282 5.30343C10.5821 5.79015 10.5376 6.17029 10.4946 6.44069C10.4533 6.71268 10.3896 6.93377 10.3053 7.10237C10.221 7.27097 10.1638 7.37436 10.1367 7.41253C10.1081 7.44911 10.0842 7.47297 10.0667 7.48252C9.94427 7.53023 9.81702 7.5525 9.6866 7.5525C9.55617 7.5525 9.39711 7.48729 9.20942 7.35527C9.02174 7.22325 8.8261 7.04352 8.62568 6.81448C8.42368 6.58543 8.19623 6.26414 7.94333 5.85059C7.68884 5.43863 7.42798 4.95191 7.15599 4.38885L6.93013 3.98166C6.79016 3.71922 6.5977 3.33748 6.35434 2.83486C6.11099 2.33383 5.89467 1.8487 5.70698 1.37948C5.63381 1.18384 5.52088 1.03433 5.36978 0.930943L5.30138 0.887997C5.25208 0.851414 5.17732 0.811649 5.07552 0.768704C4.97213 0.727349 4.86557 0.695538 4.75104 0.678042L0.900265 0.705081C0.505803 0.705081 0.238586 0.794153 0.0986157 0.970707L0.041355 1.0566C0.0143152 1.10432 0 1.17907 0 1.28246C0 1.38585 0.0286305 1.51309 0.0843006 1.66261C0.647364 2.98437 1.25814 4.25842 1.91823 5.48635C2.57991 6.71427 3.15252 7.70361 3.63923 8.45277C4.12754 9.20352 4.6238 9.90973 5.1296 10.5746C5.63699 11.2395 5.97101 11.6673 6.13484 11.855C6.30026 12.0443 6.4291 12.1827 6.52294 12.2781L6.87287 12.6137C7.09873 12.8412 7.42957 13.11 7.86539 13.4233C8.30121 13.7367 8.78474 14.0468 9.31281 14.3506C9.84247 14.6544 10.4596 14.9041 11.1626 15.0966C11.8657 15.2891 12.5512 15.367 13.2161 15.3272H14.8337C15.1629 15.3018 15.4095 15.1968 15.5797 15.0202L15.6338 14.9519C15.6703 14.893 15.7069 14.8087 15.7387 14.691C15.7705 14.5733 15.788 14.446 15.788 14.3029C15.7785 13.9021 15.8087 13.5394 15.8803 13.2149C15.9503 12.8921 16.0298 12.6487 16.1173 12.4833C16.208 12.3195 16.3066 12.1811 16.4211 12.0681C16.5308 11.9568 16.612 11.8884 16.6581 11.863C16.7042 11.8407 16.7424 11.8264 16.7694 11.8152C16.9953 11.7405 17.2593 11.8136 17.5647 12.0347C17.8685 12.2558 18.1532 12.5262 18.422 12.8507C18.6892 13.1736 19.0105 13.5378 19.3827 13.9402C19.7597 14.3443 20.0858 14.6417 20.3673 14.8405L20.6488 15.0075C20.8365 15.1189 21.0799 15.2222 21.3805 15.3177C21.6795 15.4115 21.9436 15.4322 22.1662 15.3861L25.7657 15.3304C26.1236 15.3304 26.3988 15.2716 26.596 15.1539C26.7932 15.0362 26.9077 14.9089 26.9475 14.7689C26.9841 14.629 26.9857 14.4699 26.9539 14.2902C26.9236 14.1088 26.8902 13.9848 26.8584 13.9132Z" fill="#403838"/>
</svg>
