<svg width="20" height="20" viewBox="0 0 20 20" fill="none" xmlns="http://www.w3.org/2000/svg">
<path d="M20 14.5862L20 5.41382C20 2.42859 17.5714 -1.06157e-07 14.5862 -2.36646e-07L5.41367 -6.37589e-07C2.42859 -7.68071e-07 -1.06157e-07 2.42859 -2.36646e-07 5.41382L-6.37589e-07 14.5863C-7.68071e-07 17.5714 2.42859 20 5.41366 20L14.5862 20C17.5714 20 20 17.5714 20 14.5862V14.5862ZM4.5314 10C4.5314 6.98456 6.98456 4.5314 10 4.5314C13.0154 4.5314 15.4686 6.98456 15.4686 10C15.4686 13.0154 13.0154 15.4686 10 15.4686C6.98456 15.4686 4.5314 13.0154 4.5314 10ZM14.1789 15.5994C14.1789 14.7083 14.9037 13.9835 15.7948 13.9835C16.6859 13.9835 17.4109 14.7083 17.4109 15.5994C17.4109 16.4905 16.6859 17.2154 15.7948 17.2154C14.9037 17.2154 14.1789 16.4905 14.1789 15.5994Z" fill="#403838"/>
<path d="M14.2963 9.99924C14.2963 7.63046 12.3691 5.70312 10.0002 5.70312C7.63144 5.70312 5.7041 7.63046 5.7041 9.99924C5.7041 12.3682 7.63144 14.2953 10.0002 14.2953C12.3691 14.2953 14.2963 12.3682 14.2963 9.99924Z" fill="#403838"/>
<path d="M16.2379 15.5997C16.2379 15.3552 16.0389 15.1562 15.7945 15.1562C15.55 15.1562 15.3511 15.3552 15.3511 15.5997C15.3511 15.8443 15.5499 16.0432 15.7945 16.0432C16.0391 16.0432 16.2379 15.8443 16.2379 15.5997Z" fill="#403838"/>
</svg>
