<svg xmlns="http://www.w3.org/2000/svg" xmlns:xlink="http://www.w3.org/1999/xlink"><defs><symbol viewBox="0 0 321 32" fill="none" id="i-arrow-back">
<path d="M1 16L21.1804 31M1.45905 16L21.6394 1M1.39124 16.0942H321" stroke="#A77255" stroke-width="0.625" />
</symbol><symbol viewBox="0 0 66 67" fill="none" id="i-arrow-pagination">
<path fill-rule="evenodd" clip-rule="evenodd" d="M33.6684 0.647461L1.37976 33.1475L1.62597 33.3921V33.4205L1.35471 33.1475L0.645294 33.8523L32.9339 66.3523L33.6433 65.6475L2.35358 34.1529H66V33.1529H2.784L34.3778 1.35226L33.6684 0.647461Z" fill="#403838" />
</symbol><symbol viewBox="0 0 142 67" fill="none" id="i-arrow-right-md">
<path d="M141 33.5L108.711 66M140.266 33.5L107.977 1M140.374 33.653H0" stroke="#A77255" />
</symbol><symbol viewBox="0 0 18 19" fill="none" id="i-back">
<path fill-rule="evenodd" clip-rule="evenodd" d="M8.96449 0.652344L0.519766 9.15234L0.522343 9.1549L0.317759 9.34687L8.76248 18.3469L9.49172 17.6626L2.30889 10.0075L17.6812 10.0448L17.6836 9.04476L2.07388 9.0069L9.6739 1.35714L8.96449 0.652344Z" fill="#403838" />
</symbol><symbol viewBox="0 0 30 33" fill="none" id="i-cart">
<path fill-rule="evenodd" clip-rule="evenodd" d="M14.8421 1C13.4381 0.999529 12.057 1.36343 10.8309 2.0576C9.60476 2.75181 8.57423 3.75338 7.839 4.96737L6.98364 4.44934C7.80711 3.08964 8.9622 1.96646 10.3383 1.18739C11.7143 0.408324 13.2652 -0.000529036 14.8424 5.13754e-07C16.4196 0.000531093 17.9703 0.410426 19.3458 1.19042C20.7213 1.97041 21.8757 3.09437 22.6983 4.45462L21.8426 4.97208C21.1081 3.7576 20.0783 2.75534 18.8525 2.0603C17.6269 1.36531 16.246 1.00047 14.8421 1Z" fill="#403838" />
<path fill-rule="evenodd" clip-rule="evenodd" d="M4.96008 5.44844L1.1542 31.8967H28.525L24.7191 5.44844H4.96008ZM25.5855 4.44844H4.09368L0 32.8967H29.6792L25.5855 4.44844Z" fill="#403838" />
</symbol><symbol viewBox="0 0 513 67" fill="none" id="i-catalog-cat-more-arrow">
<path fill-rule="evenodd" clip-rule="evenodd" d="M479.332 0.968262L511.62 33.4683L511.374 33.7128V33.7413L511.645 33.4683L512.355 34.1731L480.066 66.6731L479.357 65.9683L510.646 34.4737H0V33.4737H510.216L478.622 1.67306L479.332 0.968262Z" fill="#A77255" />
</symbol><symbol viewBox="0 0 37 37" fill="none" id="i-close">
<path fill-rule="evenodd" clip-rule="evenodd" d="M17.127 36.428L17.127 0.684753L18.127 0.684753L18.127 36.428L17.127 36.428Z" fill="#403838" />
<path fill-rule="evenodd" clip-rule="evenodd" d="M36.4279 19.9862L0.68457 19.9862V18.9862L36.4279 18.9862V19.9862Z" fill="#403838" />
</symbol><symbol viewBox="0 0 28 19" fill="none" id="i-download">
<path fill-rule="evenodd" clip-rule="evenodd" d="M21.3418 6.76035L14.472 13.1931L7.66101 6.90977L8.33908 6.17477L13.9694 11.369L13.9694 -3.22256e-07L14.9694 -2.78545e-07L14.9694 11.3573L20.6583 6.03041L21.3418 6.76035Z" fill="#DDC8AE" />
<path fill-rule="evenodd" clip-rule="evenodd" d="M0.5 12.5H1.5V17.5H26.5V12.5H27.5V18.5H0.5V12.5Z" fill="#DDC8AE" />
</symbol><symbol viewBox="0 0 39 37" fill="none" id="i-favorites">
<path fill-rule="evenodd" clip-rule="evenodd" d="M24.2285 13.8197L19.7862 0L15.3439 13.8197H0.968384L12.5984 22.3607L8.15614 36.1803L19.7862 27.6393L31.4162 36.1803L26.9739 22.3607L38.604 13.8197H24.2285ZM35.5529 14.8197H23.4995L19.7862 3.26772L16.0728 14.8197H4.01947L13.7709 21.981L10.0532 33.5465L19.7862 26.3986L29.5192 33.5465L25.8015 21.981L35.5529 14.8197Z" fill="#403838" />
</symbol><symbol viewBox="0 0 27 19" fill="none" id="i-filter">
<path fill-rule="evenodd" clip-rule="evenodd" d="M27 2.71429H0V2.21429H27V2.71429Z" fill="#A77255" />
<path fill-rule="evenodd" clip-rule="evenodd" d="M27 9.5H0V9H27V9.5Z" fill="#A77255" />
<path fill-rule="evenodd" clip-rule="evenodd" d="M27 16.2857H0V15.7857H27V16.2857Z" fill="#A77255" />
<path d="M10.8004 2.71429C10.8004 4.21334 9.59156 5.42857 8.10039 5.42857C6.60922 5.42857 5.40039 4.21334 5.40039 2.71429C5.40039 1.21523 6.60922 0 8.10039 0C9.59156 0 10.8004 1.21523 10.8004 2.71429Z" fill="white" />
<path fill-rule="evenodd" clip-rule="evenodd" d="M8.10039 4.42857C9.03431 4.42857 9.80039 3.66604 9.80039 2.71429C9.80039 1.76253 9.03431 1 8.10039 1C7.16648 1 6.40039 1.76253 6.40039 2.71429C6.40039 3.66604 7.16648 4.42857 8.10039 4.42857ZM8.10039 5.42857C9.59156 5.42857 10.8004 4.21334 10.8004 2.71429C10.8004 1.21523 9.59156 0 8.10039 0C6.60922 0 5.40039 1.21523 5.40039 2.71429C5.40039 4.21334 6.60922 5.42857 8.10039 5.42857Z" fill="#A77255" />
<path d="M26.9996 16.2856C26.9996 17.7846 25.7908 18.9999 24.2996 18.9999C22.8084 18.9999 21.5996 17.7846 21.5996 16.2856C21.5996 14.7865 22.8084 13.5713 24.2996 13.5713C25.7908 13.5713 26.9996 14.7865 26.9996 16.2856Z" fill="white" />
<path fill-rule="evenodd" clip-rule="evenodd" d="M24.2996 17.9999C25.2335 17.9999 25.9996 17.2373 25.9996 16.2856C25.9996 15.3338 25.2335 14.5713 24.2996 14.5713C23.3657 14.5713 22.5996 15.3338 22.5996 16.2856C22.5996 17.2373 23.3657 17.9999 24.2996 17.9999ZM24.2996 18.9999C25.7908 18.9999 26.9996 17.7846 26.9996 16.2856C26.9996 14.7865 25.7908 13.5713 24.2996 13.5713C22.8084 13.5713 21.5996 14.7865 21.5996 16.2856C21.5996 17.7846 22.8084 18.9999 24.2996 18.9999Z" fill="#A77255" />
<path d="M5.4 9.5C5.4 10.9991 4.19117 12.2143 2.7 12.2143C1.20883 12.2143 0 10.9991 0 9.5C0 8.00094 1.20883 6.78571 2.7 6.78571C4.19117 6.78571 5.4 8.00094 5.4 9.5Z" fill="white" />
<path fill-rule="evenodd" clip-rule="evenodd" d="M2.7 11.2143C3.63392 11.2143 4.4 10.4518 4.4 9.5C4.4 8.54824 3.63392 7.78571 2.7 7.78571C1.76608 7.78571 1 8.54824 1 9.5C1 10.4518 1.76608 11.2143 2.7 11.2143ZM2.7 12.2143C4.19117 12.2143 5.4 10.9991 5.4 9.5C5.4 8.00094 4.19117 6.78571 2.7 6.78571C1.20883 6.78571 0 8.00094 0 9.5C0 10.9991 1.20883 12.2143 2.7 12.2143Z" fill="#A77255" />
</symbol><symbol viewBox="0 0 20 20" fill="none" id="i-inst">
<path d="M20 14.5862L20 5.41382C20 2.42859 17.5714 -1.06157e-07 14.5862 -2.36646e-07L5.41367 -6.37589e-07C2.42859 -7.68071e-07 -1.06157e-07 2.42859 -2.36646e-07 5.41382L-6.37589e-07 14.5863C-7.68071e-07 17.5714 2.42859 20 5.41366 20L14.5862 20C17.5714 20 20 17.5714 20 14.5862V14.5862ZM4.5314 10C4.5314 6.98456 6.98456 4.5314 10 4.5314C13.0154 4.5314 15.4686 6.98456 15.4686 10C15.4686 13.0154 13.0154 15.4686 10 15.4686C6.98456 15.4686 4.5314 13.0154 4.5314 10ZM14.1789 15.5994C14.1789 14.7083 14.9037 13.9835 15.7948 13.9835C16.6859 13.9835 17.4109 14.7083 17.4109 15.5994C17.4109 16.4905 16.6859 17.2154 15.7948 17.2154C14.9037 17.2154 14.1789 16.4905 14.1789 15.5994Z" fill="#403838" />
<path d="M14.2963 9.99924C14.2963 7.63046 12.3691 5.70312 10.0002 5.70312C7.63141 5.70312 5.70407 7.63046 5.70407 9.99924C5.70407 12.3682 7.63141 14.2953 10.0002 14.2953C12.3691 14.2953 14.2963 12.3682 14.2963 9.99924Z" fill="#403838" />
<path d="M16.2379 15.5997C16.2379 15.3552 16.039 15.1562 15.7945 15.1562C15.5501 15.1562 15.3511 15.3552 15.3511 15.5997C15.3511 15.8443 15.5499 16.0432 15.7945 16.0432C16.0391 16.0432 16.2379 15.8443 16.2379 15.5997Z" fill="#403838" />
</symbol><symbol viewBox="0 0 30 31" fill="none" id="i-login">
<path fill-rule="evenodd" clip-rule="evenodd" d="M14.7307 14.2206C18.3263 14.2206 21.2595 11.2712 21.2595 7.61029C21.2595 3.94936 18.3263 1 14.7307 1C11.135 1 8.20178 3.94936 8.20178 7.61029C8.20178 11.2712 11.135 14.2206 14.7307 14.2206ZM14.7307 15.2206C18.8887 15.2206 22.2595 11.8133 22.2595 7.61029C22.2595 3.40724 18.8887 0 14.7307 0C10.5726 0 7.20178 3.40724 7.20178 7.61029C7.20178 11.8133 10.5726 15.2206 14.7307 15.2206Z" fill="#403838" />
<path fill-rule="evenodd" clip-rule="evenodd" d="M14.7305 16.2205C12.9289 16.2205 11.1447 16.5791 9.4796 17.2763C7.81451 17.9734 6.30086 18.9956 5.02537 20.2849C3.74985 21.5741 2.7375 23.1054 2.04662 24.7913C1.35573 26.4773 1 28.2847 1 30.1102H0C0 28.1548 0.381016 26.2186 1.12129 24.4121C1.86157 22.6056 2.94662 20.9642 4.31447 19.5816C5.68233 18.1989 7.30621 17.1021 9.0934 16.3539C10.8806 15.6056 12.7961 15.2205 14.7305 15.2205C16.665 15.2205 18.5805 15.6056 20.3677 16.3539C22.1549 17.1021 23.7787 18.1989 25.1466 19.5816C26.5144 20.9642 27.5995 22.6056 28.3398 24.4121C29.08 26.2186 29.4611 28.1548 29.4611 30.1102H28.4611C28.4611 28.2847 28.1053 26.4773 27.4144 24.7913C26.7236 23.1054 25.7112 21.5741 24.4357 20.2848C23.1602 18.9956 21.6466 17.9734 19.9815 17.2763C18.3164 16.5791 16.5321 16.2205 14.7305 16.2205Z" fill="#403838" />
</symbol><symbol viewBox="0 0 21 22" fill="none" id="i-logout">
<path fill-rule="evenodd" clip-rule="evenodd" d="M11.1264 5.6582L15.683 10.5188L11.2307 15.3394L10.4961 14.6609L13.8576 11.0214L0 11.0214L0 10.0214L13.8459 10.0214L10.3968 6.34213L11.1264 5.6582Z" fill="#403838" />
<path fill-rule="evenodd" clip-rule="evenodd" d="M5.15234 21.5L5.15234 17.8L6.15234 17.8L6.15234 20.5L19.5523 20.5L19.5523 1.5L6.15234 1.5L6.15234 4.2L5.15234 4.2L5.15234 0.5L20.5523 0.499999L20.5523 21.5L5.15234 21.5Z" fill="#403838" />
</symbol><symbol viewBox="0 0 29 28" fill="none" id="i-rating-star">
<path d="M14.5 1.61804L17.3922 10.5193L17.5044 10.8647H17.8677H27.227L19.6552 16.366L19.3613 16.5795L19.4735 16.925L22.3657 25.8262L14.7939 20.325L14.5 20.1115L14.2061 20.325L6.63426 25.8262L9.52644 16.925L9.6387 16.5795L9.3448 16.366L1.77297 10.8647H11.1323H11.4955L11.6078 10.5193L14.5 1.61804Z" stroke="#403838" />
</symbol><symbol viewBox="0 0 29 31" fill="none" id="i-search">
<path fill-rule="evenodd" clip-rule="evenodd" d="M12.3664 24C18.6338 24 23.7328 18.8614 23.7328 12.5C23.7328 6.13857 18.6338 1 12.3664 1C6.09901 1 1 6.13857 1 12.5C1 18.8614 6.09901 24 12.3664 24ZM12.3664 25C19.1962 25 24.7328 19.4036 24.7328 12.5C24.7328 5.59644 19.1962 0 12.3664 0C5.53662 0 0 5.59644 0 12.5C0 19.4036 5.53662 25 12.3664 25Z" fill="#403838" />
<path fill-rule="evenodd" clip-rule="evenodd" d="M27.7007 31L19.7862 22L20.53 21.3317L28.4446 30.3317L27.7007 31Z" fill="#403838" />
</symbol><symbol viewBox="0 0 66 67" fill="none" id="i-slider-arrow-left">
<path fill-rule="evenodd" clip-rule="evenodd" d="M33.6684 0.647583L1.37973 33.1476L1.62594 33.3922V33.4206L1.35468 33.1476L0.645264 33.8524L32.9339 66.3524L33.6433 65.6476L2.35355 34.153H66V33.153H2.78397L34.3778 1.35238L33.6684 0.647583Z" fill="#403838" />
</symbol><symbol viewBox="0 0 66 67" fill="none" id="i-slider-arrow-right">
<path fill-rule="evenodd" clip-rule="evenodd" d="M32.3316 0.647583L64.6202 33.1476L64.374 33.3922V33.4206L64.6453 33.1476L65.3547 33.8524L33.0661 66.3524L32.3567 65.6476L63.6464 34.153H0V33.153H63.216L31.6222 1.35238L32.3316 0.647583Z" fill="#403838" />
</symbol><symbol viewBox="0 0 42 42" fill="none" id="i-subscription-for-arrow">
<path d="M41 40.8714L1.22371 41M40.5491 40.4245L40.6788 1M40.5218 40.5836L1 1.41142" stroke="white" />
</symbol><symbol viewBox="0 0 55 55" fill="none" id="i-video-play">
<path fill-rule="evenodd" clip-rule="evenodd" d="M27.5 54C42.1355 54 54 42.1355 54 27.5C54 12.8645 42.1355 1 27.5 1C12.8645 1 1 12.8645 1 27.5C1 42.1355 12.8645 54 27.5 54ZM27.5 55C42.6878 55 55 42.6878 55 27.5C55 12.3122 42.6878 0 27.5 0C12.3122 0 0 12.3122 0 27.5C0 42.6878 12.3122 55 27.5 55Z" fill="#A77255" />
<path fill-rule="evenodd" clip-rule="evenodd" d="M43.1539 27.923L19.0385 14L19.0385 41.846L43.1539 27.923ZM41.1539 27.923L20.0385 15.732L20.0385 40.114L41.1539 27.923Z" fill="#A77255" />
</symbol><symbol viewBox="0 0 27 16" fill="none" id="i-vk">
<path d="M26.8584 13.9132C26.825 13.8416 26.7964 13.7844 26.7662 13.7382C26.297 12.8952 25.4015 11.8598 24.0813 10.6319L24.0527 10.6016L24.0383 10.5889L24.024 10.5746H24.0113C23.4101 10.002 23.0299 9.61866 22.8709 9.42143C22.5798 9.04764 22.513 8.6659 22.6736 8.28258C22.785 7.9915 23.2081 7.37913 23.9397 6.44069C24.3246 5.94443 24.63 5.54679 24.8543 5.24617C26.4751 3.09094 27.1781 1.71191 26.9618 1.11227L26.8791 0.972298C26.8234 0.887997 26.6771 0.810059 26.4433 0.740074C26.2095 0.670089 25.9089 0.657364 25.5446 0.705081L21.495 0.733711C21.4298 0.711443 21.3344 0.711444 21.2151 0.740074C21.0926 0.768704 21.0322 0.783019 21.0322 0.783019L20.9606 0.818012L20.9049 0.860957C20.8588 0.887997 20.8063 0.937305 20.7506 1.00729C20.695 1.07728 20.6472 1.15999 20.6107 1.25383C20.1701 2.38791 19.6674 3.44246 19.106 4.41589C18.7576 4.99804 18.4395 5.50225 18.1485 5.92694C17.8574 6.3548 17.614 6.66814 17.4168 6.87014C17.2211 7.07056 17.043 7.23439 16.8839 7.35368C16.7233 7.47615 16.6024 7.52705 16.5181 7.50956C16.4354 7.49047 16.3543 7.47138 16.2811 7.4523C16.1491 7.36799 16.0441 7.25347 15.9646 7.10873C15.8835 6.96399 15.831 6.78107 15.8024 6.55998C15.7737 6.33889 15.7578 6.14962 15.753 5.99056C15.7499 5.8315 15.7515 5.60564 15.761 5.31615C15.769 5.02508 15.7753 4.82785 15.7753 4.72605C15.7753 4.36976 15.7817 3.98325 15.796 3.56652C15.8103 3.14979 15.823 2.81895 15.831 2.5756C15.8389 2.33224 15.8453 2.07457 15.8453 1.80258C15.8453 1.53218 15.8278 1.31904 15.796 1.16317C15.7642 1.00888 15.7133 0.859367 15.6481 0.713034C15.5813 0.568292 15.4842 0.455361 15.357 0.375832C15.2313 0.296304 15.0755 0.23268 14.8878 0.184963C14.3899 0.0720322 13.7585 0.0115908 12.9902 0.00204735C11.2454 -0.0170395 10.1256 0.0974816 9.62934 0.339249C9.43369 0.444227 9.25396 0.584198 9.0949 0.762342C8.92789 0.969117 8.90403 1.08205 9.02492 1.09954C9.58798 1.18384 9.98562 1.38585 10.221 1.70396L10.3053 1.87256C10.3705 1.99345 10.4373 2.20976 10.501 2.51834C10.5678 2.8285 10.6091 3.17047 10.6282 3.54585C10.6743 4.22979 10.6743 4.81512 10.6282 5.30343C10.5821 5.79015 10.5376 6.17029 10.4946 6.44069C10.4533 6.71268 10.3896 6.93377 10.3053 7.10237C10.221 7.27097 10.1638 7.37436 10.1367 7.41253C10.1081 7.44911 10.0842 7.47297 10.0667 7.48252C9.94427 7.53023 9.81702 7.5525 9.6866 7.5525C9.55617 7.5525 9.39711 7.48729 9.20942 7.35527C9.02174 7.22325 8.8261 7.04352 8.62568 6.81448C8.42368 6.58543 8.19623 6.26414 7.94333 5.85059C7.68884 5.43863 7.42798 4.95191 7.15599 4.38885L6.93013 3.98166C6.79016 3.71922 6.5977 3.33748 6.35434 2.83486C6.11099 2.33383 5.89467 1.8487 5.70698 1.37948C5.63381 1.18384 5.52088 1.03433 5.36978 0.930943L5.30138 0.887997C5.25208 0.851414 5.17732 0.811649 5.07552 0.768704C4.97213 0.727349 4.86557 0.695538 4.75104 0.678042L0.900265 0.705081C0.505803 0.705081 0.238586 0.794153 0.0986157 0.970707L0.041355 1.0566C0.0143152 1.10432 0 1.17907 0 1.28246C0 1.38585 0.0286305 1.51309 0.0843006 1.66261C0.647364 2.98437 1.25814 4.25842 1.91823 5.48635C2.57991 6.71427 3.15252 7.70361 3.63923 8.45277C4.12754 9.20352 4.6238 9.90973 5.1296 10.5746C5.63699 11.2395 5.97101 11.6673 6.13484 11.855C6.30026 12.0443 6.4291 12.1827 6.52294 12.2781L6.87287 12.6137C7.09873 12.8412 7.42957 13.11 7.86539 13.4233C8.30121 13.7367 8.78474 14.0468 9.31281 14.3506C9.84247 14.6544 10.4596 14.9041 11.1626 15.0966C11.8657 15.2891 12.5512 15.367 13.2161 15.3272H14.8337C15.1629 15.3018 15.4095 15.1968 15.5797 15.0202L15.6338 14.9519C15.6703 14.893 15.7069 14.8087 15.7387 14.691C15.7705 14.5733 15.788 14.446 15.788 14.3029C15.7785 13.9021 15.8087 13.5394 15.8803 13.2149C15.9503 12.8921 16.0298 12.6487 16.1173 12.4833C16.208 12.3195 16.3066 12.1811 16.4211 12.0681C16.5308 11.9568 16.612 11.8884 16.6581 11.863C16.7042 11.8407 16.7424 11.8264 16.7694 11.8152C16.9953 11.7405 17.2593 11.8136 17.5647 12.0347C17.8685 12.2558 18.1532 12.5262 18.422 12.8507C18.6892 13.1736 19.0105 13.5378 19.3827 13.9402C19.7597 14.3443 20.0858 14.6417 20.3673 14.8405L20.6488 15.0075C20.8365 15.1189 21.0799 15.2222 21.3805 15.3177C21.6795 15.4115 21.9436 15.4322 22.1662 15.3861L25.7657 15.3304C26.1236 15.3304 26.3988 15.2716 26.596 15.1539C26.7932 15.0362 26.9077 14.9089 26.9475 14.7689C26.9841 14.629 26.9857 14.4699 26.9539 14.2902C26.9236 14.1088 26.8902 13.9848 26.8584 13.9132Z" fill="#403838" />
</symbol><symbol viewBox="0 0 75 75" fill="none" id="i-wa">
<path d="M0 37.5C0 16.7893 16.7893 0 37.5 0C58.2107 0 75 16.7893 75 37.5C75 58.2107 58.2107 75 37.5 75C16.7893 75 0 58.2107 0 37.5Z" fill="#403838" />
<path fill-rule="evenodd" clip-rule="evenodd" d="M1 37.5C1 57.6584 17.3416 74 37.5 74C57.6584 74 74 57.6584 74 37.5C74 17.3416 57.6584 1 37.5 1C17.3416 1 1 17.3416 1 37.5ZM37.5 0C16.7893 0 0 16.7893 0 37.5C0 58.2107 16.7893 75 37.5 75C58.2107 75 75 58.2107 75 37.5C75 16.7893 58.2107 0 37.5 0Z" fill="#DDC8AE" />
<path d="M48.6689 40.9863C47.48 40.3449 46.4676 39.7016 45.7289 39.2323C45.1647 38.8743 44.757 38.6159 44.4582 38.4701C43.6229 38.0652 42.9898 38.3512 42.7489 38.5877C42.7187 38.6171 42.6916 38.649 42.6684 38.6828C41.8009 39.9475 40.6681 41.1571 40.3364 41.2222C39.9532 41.164 38.1596 40.1734 36.3769 38.731C34.5568 37.2573 33.4117 35.8462 33.2436 34.885C34.4113 33.7173 34.8318 32.9827 34.8318 32.1466C34.8318 31.2849 32.7632 27.6873 32.389 27.3238C32.0135 26.9596 31.1679 26.9026 29.8754 27.1529C29.7511 27.1773 29.6364 27.2368 29.5463 27.3238C29.3898 27.4758 25.7278 31.1035 27.468 35.5001C29.3782 40.3255 34.2812 45.9343 40.5322 46.8454C41.2425 46.9487 41.9085 47 42.5319 47C46.2093 47 48.3797 45.2022 48.9909 41.6359C49.0366 41.3749 48.9072 41.1146 48.6689 40.9863ZM40.7234 45.6077C34.1131 44.6446 29.9494 38.2811 28.6704 35.0508C27.4016 31.8469 29.7414 28.9902 30.3288 28.3444C30.8066 28.2656 31.3096 28.2324 31.5196 28.2643C31.9582 28.8569 33.4768 31.6447 33.5438 32.1466C33.5438 32.4751 33.4336 32.9326 32.1224 34.2073C32.0013 34.3243 31.9337 34.4833 31.9337 34.6497C31.9337 37.9263 39.0464 42.4719 40.3061 42.4719C41.4016 42.4719 42.8301 40.6828 43.6435 39.517C43.6905 39.5189 43.7697 39.5345 43.8824 39.5896C44.1143 39.7028 44.5162 39.9575 45.0243 40.2804C45.6954 40.7066 46.5867 41.2723 47.6391 41.8586C47.1612 44.0927 45.8255 46.3523 40.7234 45.6077Z" fill="#DDC8AE" />
<path d="M38 18C27.523 18 19 26.523 19 37C19 40.5742 19.9931 44.0439 21.877 47.0568C21.1265 49.6862 19.771 54.6598 19.7563 54.7117C19.6862 54.9689 19.7615 55.2437 19.9537 55.4285C20.1458 55.6134 20.4235 55.6792 20.6764 55.6017L28.2077 53.2852C31.1578 55.0624 34.5362 56 38 56C48.477 56 57 47.477 57 37C57 26.523 48.477 18 38 18ZM38 54.5385C34.6977 54.5385 31.4808 53.6155 28.6966 51.8704C28.5789 51.7966 28.4437 51.7593 28.3085 51.7593C28.2362 51.7593 28.1638 51.7703 28.0937 51.7915L21.5175 53.8157C22.0005 52.0524 22.8687 48.8984 23.3722 47.1438C23.4307 46.9407 23.3978 46.7214 23.283 46.5438C21.4371 43.7033 20.4615 40.4032 20.4615 37C20.4615 27.3297 28.3297 19.4615 38 19.4615C47.6703 19.4615 55.5385 27.3297 55.5385 37C55.5385 46.6703 47.6703 54.5385 38 54.5385Z" fill="#DDC8AE" />
</symbol><symbol viewBox="0 0 25 14" fill="none" id="icon-arrow-down">
<path fill-rule="evenodd" clip-rule="evenodd" d="M24.7938 0.986195L12.775 13.2002L0.647604 1.15091L1.35242 0.441525L12.767 11.7826L24.081 0.284806L24.7938 0.986195Z" fill="#A77255" />
</symbol><symbol viewBox="0 0 18 19" fill="none" id="icon-basket">
<path fill-rule="evenodd" clip-rule="evenodd" d="M6.06836 6.27052C6.27505 4.41033 6.79176 1.02584 9.1945 1C11.5714 1.02584 12.0881 4.41033 12.2948 6.27052H11.5714C11.3647 4.92705 10.8738 1.80091 9.1945 1.80091C7.48933 1.80091 7.02429 4.92705 6.79176 6.27052H6.06836Z" fill="" stroke="" stroke-width="0.3" />
<path fill-rule="evenodd" clip-rule="evenodd" d="M1.8315 7.48463L2.78742 15.5196C3.12329 16.5272 3.89836 16.9922 4.9318 17.0956H13.4576C14.4911 16.9922 15.2403 16.5272 15.5762 15.5196L16.5579 7.48463H1.8315ZM12.3209 7.94968C11.9592 7.94968 11.675 8.23387 11.675 8.59558C11.675 8.95728 11.9592 9.26731 12.3209 9.26731C12.6826 9.26731 12.9668 8.95728 12.9668 8.59558C12.9668 8.23387 12.6826 7.94968 12.3209 7.94968ZM4.85429 17.9998C3.51083 17.9998 2.52906 17.2764 2.01235 15.7521L1.00475 7.20044C0.978912 6.96792 1.05642 6.8129 1.28894 6.76123H17.0747C17.3072 6.8129 17.3847 6.96792 17.3589 7.20044L16.3513 15.7521C15.8345 17.2764 14.8528 17.9998 13.5093 17.9998H4.85429Z" fill="" stroke="" stroke-width="0.3" />
<path d="M6.04238 9.2415C6.3991 9.2415 6.68828 8.95232 6.68828 8.5956C6.68828 8.23888 6.3991 7.94971 6.04238 7.94971C5.68566 7.94971 5.39648 8.23888 5.39648 8.5956C5.39648 8.95232 5.68566 9.2415 6.04238 9.2415Z" fill="" stroke="" stroke-width="0.3" />
</symbol><symbol viewBox="0 0 32 31" fill="none" id="icon-basket-product-remove">
<line x1="1.35355" y1="0.646447" x2="30.899" y2="30.1919" stroke="#403838" />
<line y1="-0.5" x2="41.7836" y2="-0.5" transform="matrix(-0.707107 0.707107 0.707107 0.707107 31 1)" stroke="#403838" />
</symbol><symbol viewBox="0 0 13 14" fill="none" id="icon-checked">
<path fill-rule="evenodd" clip-rule="evenodd" d="M12.8547 4.83419L4.52934 13.2292L0.647189 9.37203L1.35201 8.66264L4.52411 11.8143L12.1446 4.13003L12.8547 4.83419Z" fill="white" />
</symbol><symbol viewBox="0 0 9 9" fill="none" id="icon-select">
<path fill-rule="evenodd" clip-rule="evenodd" d="M0.671856 4.21263L4.52002 0.301964L8.40356 4.16047L7.69875 4.86986L4.52803 1.71958L1.38463 4.91402L0.671856 4.21263Z" fill="#A77255" />
</symbol></defs></svg>