<svg width="66" height="75" viewBox="0 0 66 75" fill="none" xmlns="http://www.w3.org/2000/svg">
<path d="M33.2663 5.2002H32.0566V18.6881H33.2663V5.2002Z" fill="#DDC8AE"/>
<path d="M32.6615 5.80547C31.0889 5.80547 29.7583 4.47482 29.7583 2.90225C29.7583 1.32967 31.0889 -0.000976562 32.6615 -0.000976562C34.2341 -0.000976562 35.5647 1.32967 35.5647 2.90225C35.5647 4.47482 34.2341 5.80547 32.6615 5.80547ZM32.6615 1.2087C31.7543 1.2087 30.968 1.99499 30.968 2.90225C30.968 3.8095 31.7543 4.59579 32.6615 4.59579C33.5688 4.59579 34.3551 3.8095 34.3551 2.90225C34.3551 1.99499 33.5688 1.2087 32.6615 1.2087Z" fill="#DDC8AE"/>
<path d="M62.4193 23.1641C60.8468 23.1641 59.5161 21.8335 59.5161 20.2609C59.5161 18.6883 60.7863 17.3577 62.4193 17.3577C64.0524 17.3577 65.3226 18.6883 65.3226 20.2609C65.3226 21.8335 64.0524 23.1641 62.4193 23.1641ZM62.4193 18.5069C61.5121 18.5069 60.7258 19.2931 60.7258 20.2004C60.7258 21.1077 61.4516 21.8939 62.4193 21.8939C63.3871 21.8939 64.1129 21.1077 64.1129 20.2004C64.1129 19.2931 63.3871 18.5069 62.4193 18.5069Z" fill="#DDC8AE"/>
<path d="M62.4193 57.6402C60.8468 57.6402 59.5161 56.3095 59.5161 54.737C59.5161 53.1644 60.7863 51.8337 62.4193 51.8337C64.0524 51.8337 65.3226 53.1644 65.3226 54.737C65.3226 56.3095 64.0524 57.6402 62.4193 57.6402ZM62.4193 53.0434C61.5121 53.0434 60.7258 53.8297 60.7258 54.737C60.7258 55.6442 61.4516 56.4305 62.4193 56.4305C63.3871 56.4305 64.1129 55.6442 64.1129 54.737C64.1129 53.8297 63.3871 53.0434 62.4193 53.0434Z" fill="#DDC8AE"/>
<path d="M32.6615 74.9991C31.0889 74.9991 29.7583 73.6684 29.7583 72.0958C29.7583 70.5233 31.0285 69.1926 32.6615 69.1926C34.2946 69.1926 35.5647 70.5233 35.5647 72.0958C35.5647 73.6684 34.2341 74.9991 32.6615 74.9991ZM32.6615 70.4023C31.7543 70.4023 30.968 71.1886 30.968 72.0958C30.968 73.0031 31.7543 73.7894 32.6615 73.7894C33.5688 73.7894 34.3551 73.0031 34.3551 72.0958C34.3551 71.1886 33.5688 70.4023 32.6615 70.4023Z" fill="#DDC8AE"/>
<path d="M2.90322 22.9827C1.33064 22.9827 0 21.6521 0 20.0795C0 18.5069 1.27016 17.1763 2.90322 17.1763C4.53628 17.1763 5.80644 18.5069 5.80644 20.0795C5.80644 21.6521 4.4758 22.9827 2.90322 22.9827ZM2.90322 18.3859C1.99597 18.3859 1.20968 19.1722 1.20968 20.0795C1.20968 20.9867 1.99597 21.773 2.90322 21.773C3.81048 21.773 4.59677 20.9867 4.59677 20.0795C4.59677 19.1722 3.81048 18.3859 2.90322 18.3859Z" fill="#DDC8AE"/>
<path d="M2.90322 57.6402C1.33064 57.6402 0 56.3095 0 54.737C0 53.1644 1.27016 51.8337 2.90322 51.8337C4.53628 51.8337 5.80644 53.1644 5.80644 54.737C5.80644 56.3095 4.4758 57.6402 2.90322 57.6402ZM2.90322 53.0434C1.99597 53.0434 1.20968 53.8297 1.20968 54.737C1.20968 55.6442 1.99597 56.4305 2.90322 56.4305C3.81048 56.4305 4.59677 55.6442 4.59677 54.737C4.59677 53.8297 3.81048 53.0434 2.90322 53.0434Z" fill="#DDC8AE"/>
<path d="M32.6609 56.9141C32.5399 56.9141 32.4794 56.9141 32.3584 56.8536L16.2093 47.4182C16.0278 47.2972 15.9069 47.1157 15.9069 46.8738V28.1238C15.9069 27.8819 16.0278 27.7004 16.2093 27.5795L32.3584 18.2045C32.5399 18.0835 32.7818 18.0835 32.9633 18.2045L49.1125 27.5795C49.2939 27.7004 49.4149 27.8819 49.4149 28.1238V46.9343C49.4149 47.1762 49.2939 47.3577 49.1125 47.4786L32.9633 56.7932C32.8423 56.8536 32.7818 56.9141 32.6609 56.9141ZM17.1165 46.5714L32.6609 55.5835L48.2052 46.5714V28.4263L32.6609 19.4142L17.1165 28.4263V46.5714Z" fill="#DDC8AE"/>
<path d="M32.3584 56.793L16.2093 47.418C16.0278 47.297 15.9069 47.1155 15.9069 46.8736V28.1236C15.9069 27.8817 16.0278 27.7002 16.2093 27.5793L16.3302 27.5188L16.6931 28.1236H17.177V46.5712L33.0238 55.7647L32.3584 56.793Z" fill="#DDC8AE"/>
<path d="M32.9635 56.7928L32.3586 55.7646L48.2054 46.5711V28.1235H49.4151V46.8735C49.4151 47.1154 49.2941 47.2969 49.1126 47.4179L32.9635 56.7928Z" fill="#DDC8AE"/>
<path d="M33.2663 69.7968H32.0566V37.4985C32.0566 37.2565 32.1776 37.0751 32.3591 36.9541L60.1211 20.8049L60.726 21.8332L33.2663 37.8614V69.7968Z" fill="#DDC8AE"/>
<path d="M63.0241 22.5591H61.8145V52.4381H63.0241V22.5591Z" fill="#DDC8AE"/>
<path d="M60.1594 55.4267L34.323 70.4319L34.9305 71.4779L60.7669 56.4727L60.1594 55.4267Z" fill="#DDC8AE"/>
<path d="M5.24355 20.6252L4.62988 21.6677L32.3603 37.9913L32.974 36.9488L5.24355 20.6252Z" fill="#DDC8AE"/>
<path d="M5.17427 55.3974L4.56653 56.4434L30.4029 71.4546L31.0106 70.4086L5.17427 55.3974Z" fill="#DDC8AE"/>
<path d="M3.50802 22.3777H2.29834V52.3776H3.50802V22.3777Z" fill="#DDC8AE"/>
<path d="M3.50802 22.3777H2.29834V52.3776H3.50802V22.3777Z" fill="#DDC8AE"/>
<path d="M30.4016 3.53443L4.61755 18.5093L5.22505 19.5553L31.0091 4.58043L30.4016 3.53443Z" fill="#DDC8AE"/>
<path d="M34.9257 3.53334L34.318 4.57935L60.1544 19.5905L60.7621 18.5445L34.9257 3.53334Z" fill="#DDC8AE"/>
<path d="M5.17427 55.3974L4.56653 56.4434L30.4029 71.4546L31.0106 70.4086L5.17427 55.3974Z" fill="#DDC8AE"/>
</svg>
