<svg width="30" height="33" viewBox="0 0 30 33" fill="none" xmlns="http://www.w3.org/2000/svg">
<path fill-rule="evenodd" clip-rule="evenodd" d="M14.8421 1C13.4381 0.999529 12.057 1.36343 10.8309 2.0576C9.60476 2.75181 8.57423 3.75338 7.839 4.96737L6.98364 4.44934C7.80711 3.08964 8.9622 1.96646 10.3383 1.18739C11.7143 0.408324 13.2652 -0.000529036 14.8424 5.13754e-07C16.4196 0.000531093 17.9703 0.410426 19.3458 1.19042C20.7213 1.97041 21.8757 3.09437 22.6983 4.45462L21.8426 4.97208C21.1081 3.7576 20.0783 2.75534 18.8525 2.0603C17.6269 1.36531 16.246 1.00047 14.8421 1Z" fill="#403838"/>
<path fill-rule="evenodd" clip-rule="evenodd" d="M4.96008 5.44844L1.1542 31.8967H28.525L24.7191 5.44844H4.96008ZM25.5855 4.44844H4.09368L0 32.8967H29.6792L25.5855 4.44844Z" fill="#403838"/>
</svg>
