<svg width="27" height="19" viewBox="0 0 27 19" fill="none" xmlns="http://www.w3.org/2000/svg">
<path fill-rule="evenodd" clip-rule="evenodd" d="M27 2.71429H0V2.21429H27V2.71429Z" fill="#A77255"/>
<path fill-rule="evenodd" clip-rule="evenodd" d="M27 9.5H0V9H27V9.5Z" fill="#A77255"/>
<path fill-rule="evenodd" clip-rule="evenodd" d="M27 16.2857H0V15.7857H27V16.2857Z" fill="#A77255"/>
<path d="M10.8004 2.71429C10.8004 4.21334 9.59156 5.42857 8.10039 5.42857C6.60922 5.42857 5.40039 4.21334 5.40039 2.71429C5.40039 1.21523 6.60922 0 8.10039 0C9.59156 0 10.8004 1.21523 10.8004 2.71429Z" fill="white"/>
<path fill-rule="evenodd" clip-rule="evenodd" d="M8.10039 4.42857C9.03431 4.42857 9.80039 3.66604 9.80039 2.71429C9.80039 1.76253 9.03431 1 8.10039 1C7.16648 1 6.40039 1.76253 6.40039 2.71429C6.40039 3.66604 7.16648 4.42857 8.10039 4.42857ZM8.10039 5.42857C9.59156 5.42857 10.8004 4.21334 10.8004 2.71429C10.8004 1.21523 9.59156 0 8.10039 0C6.60922 0 5.40039 1.21523 5.40039 2.71429C5.40039 4.21334 6.60922 5.42857 8.10039 5.42857Z" fill="#A77255"/>
<path d="M26.9996 16.2856C26.9996 17.7846 25.7908 18.9999 24.2996 18.9999C22.8084 18.9999 21.5996 17.7846 21.5996 16.2856C21.5996 14.7865 22.8084 13.5713 24.2996 13.5713C25.7908 13.5713 26.9996 14.7865 26.9996 16.2856Z" fill="white"/>
<path fill-rule="evenodd" clip-rule="evenodd" d="M24.2996 17.9999C25.2335 17.9999 25.9996 17.2373 25.9996 16.2856C25.9996 15.3338 25.2335 14.5713 24.2996 14.5713C23.3657 14.5713 22.5996 15.3338 22.5996 16.2856C22.5996 17.2373 23.3657 17.9999 24.2996 17.9999ZM24.2996 18.9999C25.7908 18.9999 26.9996 17.7846 26.9996 16.2856C26.9996 14.7865 25.7908 13.5713 24.2996 13.5713C22.8084 13.5713 21.5996 14.7865 21.5996 16.2856C21.5996 17.7846 22.8084 18.9999 24.2996 18.9999Z" fill="#A77255"/>
<path d="M5.4 9.5C5.4 10.9991 4.19117 12.2143 2.7 12.2143C1.20883 12.2143 0 10.9991 0 9.5C0 8.00094 1.20883 6.78571 2.7 6.78571C4.19117 6.78571 5.4 8.00094 5.4 9.5Z" fill="white"/>
<path fill-rule="evenodd" clip-rule="evenodd" d="M2.7 11.2143C3.63392 11.2143 4.4 10.4518 4.4 9.5C4.4 8.54824 3.63392 7.78571 2.7 7.78571C1.76608 7.78571 1 8.54824 1 9.5C1 10.4518 1.76608 11.2143 2.7 11.2143ZM2.7 12.2143C4.19117 12.2143 5.4 10.9991 5.4 9.5C5.4 8.00094 4.19117 6.78571 2.7 6.78571C1.20883 6.78571 0 8.00094 0 9.5C0 10.9991 1.20883 12.2143 2.7 12.2143Z" fill="#A77255"/>
</svg>
