<svg width="30" height="31" viewBox="0 0 30 31" fill="none" xmlns="http://www.w3.org/2000/svg">
<path fill-rule="evenodd" clip-rule="evenodd" d="M14.7307 14.2206C18.3263 14.2206 21.2595 11.2712 21.2595 7.61029C21.2595 3.94936 18.3263 1 14.7307 1C11.135 1 8.20178 3.94936 8.20178 7.61029C8.20178 11.2712 11.135 14.2206 14.7307 14.2206ZM14.7307 15.2206C18.8887 15.2206 22.2595 11.8133 22.2595 7.61029C22.2595 3.40724 18.8887 0 14.7307 0C10.5726 0 7.20178 3.40724 7.20178 7.61029C7.20178 11.8133 10.5726 15.2206 14.7307 15.2206Z" fill="#403838"/>
<path fill-rule="evenodd" clip-rule="evenodd" d="M14.7305 16.2205C12.9289 16.2205 11.1447 16.5791 9.4796 17.2763C7.81451 17.9734 6.30086 18.9956 5.02537 20.2849C3.74985 21.5741 2.7375 23.1054 2.04662 24.7913C1.35573 26.4773 1 28.2847 1 30.1102H0C0 28.1548 0.381016 26.2186 1.12129 24.4121C1.86157 22.6056 2.94662 20.9642 4.31447 19.5816C5.68233 18.1989 7.30621 17.1021 9.0934 16.3539C10.8806 15.6056 12.7961 15.2205 14.7305 15.2205C16.665 15.2205 18.5805 15.6056 20.3677 16.3539C22.1549 17.1021 23.7787 18.1989 25.1466 19.5816C26.5144 20.9642 27.5995 22.6056 28.3398 24.4121C29.08 26.2186 29.4611 28.1548 29.4611 30.1102H28.4611C28.4611 28.2847 28.1053 26.4773 27.4144 24.7913C26.7236 23.1054 25.7112 21.5741 24.4357 20.2848C23.1602 18.9956 21.6466 17.9734 19.9815 17.2763C18.3164 16.5791 16.5321 16.2205 14.7305 16.2205Z" fill="#403838"/>
</svg>
