<svg width="29" height="31" viewBox="0 0 29 31" fill="none" xmlns="http://www.w3.org/2000/svg">
<path fill-rule="evenodd" clip-rule="evenodd" d="M12.3664 24C18.6338 24 23.7328 18.8614 23.7328 12.5C23.7328 6.13857 18.6338 1 12.3664 1C6.09901 1 1 6.13857 1 12.5C1 18.8614 6.09901 24 12.3664 24ZM12.3664 25C19.1962 25 24.7328 19.4036 24.7328 12.5C24.7328 5.59644 19.1962 0 12.3664 0C5.53662 0 0 5.59644 0 12.5C0 19.4036 5.53662 25 12.3664 25Z" fill="#403838"/>
<path fill-rule="evenodd" clip-rule="evenodd" d="M27.7007 31L19.7862 22L20.53 21.3317L28.4446 30.3317L27.7007 31Z" fill="#403838"/>
</svg>
