<svg width="75" height="75" viewBox="0 0 75 75" fill="none" xmlns="http://www.w3.org/2000/svg">
<path d="M0 37.5C0 16.7893 16.7893 0 37.5 0C58.2107 0 75 16.7893 75 37.5C75 58.2107 58.2107 75 37.5 75C16.7893 75 0 58.2107 0 37.5Z" fill="#403838"/>
<path fill-rule="evenodd" clip-rule="evenodd" d="M1 37.5C1 57.6584 17.3416 74 37.5 74C57.6584 74 74 57.6584 74 37.5C74 17.3416 57.6584 1 37.5 1C17.3416 1 1 17.3416 1 37.5ZM37.5 0C16.7893 0 0 16.7893 0 37.5C0 58.2107 16.7893 75 37.5 75C58.2107 75 75 58.2107 75 37.5C75 16.7893 58.2107 0 37.5 0Z" fill="#DDC8AE"/>
<path d="M48.6689 40.9863C47.48 40.3449 46.4676 39.7016 45.7289 39.2323C45.1647 38.8743 44.757 38.6159 44.4582 38.4701C43.6229 38.0652 42.9898 38.3512 42.7489 38.5877C42.7187 38.6171 42.6916 38.649 42.6684 38.6828C41.8009 39.9475 40.6681 41.1571 40.3364 41.2222C39.9532 41.164 38.1596 40.1734 36.3769 38.731C34.5568 37.2573 33.4117 35.8462 33.2436 34.885C34.4113 33.7173 34.8318 32.9827 34.8318 32.1466C34.8318 31.2849 32.7632 27.6873 32.389 27.3238C32.0135 26.9596 31.1679 26.9026 29.8754 27.1529C29.7511 27.1773 29.6364 27.2368 29.5463 27.3238C29.3898 27.4758 25.7278 31.1035 27.468 35.5001C29.3782 40.3255 34.2812 45.9343 40.5322 46.8454C41.2425 46.9487 41.9085 47 42.5319 47C46.2093 47 48.3797 45.2022 48.9909 41.6359C49.0366 41.3749 48.9072 41.1146 48.6689 40.9863ZM40.7234 45.6077C34.1131 44.6446 29.9494 38.2811 28.6704 35.0508C27.4016 31.8469 29.7414 28.9902 30.3288 28.3444C30.8066 28.2656 31.3096 28.2324 31.5196 28.2643C31.9582 28.8569 33.4768 31.6447 33.5438 32.1466C33.5438 32.4751 33.4336 32.9326 32.1224 34.2073C32.0013 34.3243 31.9337 34.4833 31.9337 34.6497C31.9337 37.9263 39.0464 42.4719 40.3061 42.4719C41.4016 42.4719 42.8301 40.6828 43.6435 39.517C43.6905 39.5189 43.7697 39.5345 43.8824 39.5896C44.1143 39.7028 44.5162 39.9575 45.0243 40.2804C45.6954 40.7066 46.5867 41.2723 47.6391 41.8586C47.1612 44.0927 45.8255 46.3523 40.7234 45.6077Z" fill="#DDC8AE"/>
<path d="M38 18C27.523 18 19 26.523 19 37C19 40.5742 19.9931 44.0439 21.877 47.0568C21.1265 49.6862 19.771 54.6598 19.7563 54.7117C19.6862 54.9689 19.7615 55.2437 19.9537 55.4285C20.1458 55.6134 20.4235 55.6792 20.6764 55.6017L28.2077 53.2852C31.1578 55.0624 34.5362 56 38 56C48.477 56 57 47.477 57 37C57 26.523 48.477 18 38 18ZM38 54.5385C34.6977 54.5385 31.4808 53.6155 28.6966 51.8704C28.5789 51.7966 28.4437 51.7593 28.3085 51.7593C28.2362 51.7593 28.1638 51.7703 28.0937 51.7915L21.5175 53.8157C22.0005 52.0524 22.8687 48.8984 23.3722 47.1438C23.4307 46.9407 23.3978 46.7214 23.283 46.5438C21.4371 43.7033 20.4615 40.4032 20.4615 37C20.4615 27.3297 28.3297 19.4615 38 19.4615C47.6703 19.4615 55.5385 27.3297 55.5385 37C55.5385 46.6703 47.6703 54.5385 38 54.5385Z" fill="#DDC8AE"/>
</svg>
