<svg width="378" height="40" viewBox="0 0 378 40" fill="none" xmlns="http://www.w3.org/2000/svg">
<path d="M0 0.49444H8.05212C12.7575 0.49444 16.1208 1.46683 18.1421 3.41162C20.1966 5.32345 21.2238 7.87804 21.2238 11.0754C21.2238 13.2839 20.5611 15.2616 19.2356 17.0087C17.9102 18.7557 16.3528 20.0577 14.5634 20.9147C12.8072 21.7717 10.9681 22.3156 9.04621 22.5464L8.84739 21.2608C14.0498 20.3379 16.651 17.2394 16.651 11.9654C16.651 8.99876 15.7232 6.70787 13.8675 5.09271C12.045 3.47755 9.70894 2.62052 6.85922 2.52163H4.4237V39.3572H0V0.49444Z" fill="#403838"/>
<path d="M46.4845 39.8517C40.4206 39.8517 35.5827 38.0387 31.9708 34.4129C28.359 30.787 26.5531 26.0404 26.5531 20.1731C26.5531 17.0416 27.1329 14.1739 28.2927 11.5698C29.4856 8.9658 31.0265 6.83972 32.9152 5.1916C34.8371 3.54347 36.9744 2.27441 39.3271 1.38443C41.6798 0.461476 44.0656 0 46.4845 0C52.5485 0 57.3864 1.81294 60.9982 5.43881C64.6101 9.06469 66.416 13.8113 66.416 19.6786C66.416 22.8101 65.8196 25.6778 64.6267 28.2818C63.4669 30.8859 61.9261 33.0119 60.0042 34.6601C58.1154 36.3082 55.9947 37.5937 53.642 38.5167C51.2893 39.4067 48.9035 39.8517 46.4845 39.8517ZM31.0762 19.9258C31.0762 21.8047 31.4572 23.7495 32.2194 25.7602C33.0146 27.7709 34.1081 29.6663 35.4999 31.4462C36.8916 33.2262 38.7141 34.693 40.9673 35.8467C43.2538 37.0004 45.7224 37.5773 48.3733 37.5773C51.455 37.5773 54.371 36.5719 57.1213 34.5612C58.6124 32.6494 59.7722 30.5892 60.6006 28.3807C61.4622 26.1722 61.8929 23.3539 61.8929 19.9258C61.8929 18.047 61.4953 16.1022 60.7 14.0915C59.9379 12.0808 58.861 10.1854 57.4692 8.40544C56.0775 6.62546 54.2384 5.15863 51.952 4.00495C49.6988 2.85126 47.2467 2.27441 44.5958 2.27441C41.5141 2.27441 38.5981 3.27977 35.8478 5.29048C34.3567 7.20231 33.1803 9.26246 32.3188 11.471C31.4904 13.6794 31.0762 16.4977 31.0762 19.9258Z" fill="#403838"/>
<path d="M72.5677 0.49444H80.5702C85.2755 0.49444 88.6388 1.46683 90.6602 3.41162C92.7146 5.32345 93.7418 7.87804 93.7418 11.0754C93.7418 13.218 93.1619 15.1463 92.0022 16.8603C90.8755 18.5414 89.2519 19.8764 87.1311 20.8653C92.5655 27.0952 96.6247 31.4133 99.3087 33.8195C101.993 36.1928 104.163 37.6267 105.82 38.1211L105.621 39.11C104.826 39.2419 103.981 39.3078 103.086 39.3078C100.833 39.3078 98.5466 38.4672 96.2271 36.7862C95.7632 36.4565 95.2495 36.061 94.6862 35.5995C94.156 35.1051 93.543 34.5117 92.8472 33.8195C92.1844 33.1273 91.588 32.501 91.0578 31.9407C90.5276 31.3473 89.8317 30.5562 88.9702 29.5674C88.1087 28.5785 87.4459 27.8039 86.982 27.2435C86.5181 26.6831 85.7891 25.8426 84.795 24.7219C83.8341 23.5682 83.1713 22.7606 82.8068 22.2991C81.0175 22.6617 79.079 22.8101 76.9914 22.7441V39.3572H72.5677V0.49444ZM76.9914 2.52163V21.2608C85.1098 21.3597 89.169 18.2612 89.169 11.9654C89.169 8.99876 88.2412 6.70787 86.3856 5.09271C84.5631 3.47755 82.227 2.62052 79.3772 2.52163H76.9914Z" fill="#403838"/>
<path d="M137.935 3.01607V6.67491C134.854 3.6094 131.01 2.07664 126.404 2.07664C121.433 2.07664 117.507 3.55995 114.624 6.52658C111.741 9.4932 110.3 13.6465 110.3 18.9864C110.3 21.8541 110.797 24.4747 111.791 26.848C112.818 29.1883 114.193 31.1001 115.916 32.5834C117.672 34.0667 119.677 35.2204 121.93 36.0445C124.184 36.8356 126.586 37.2311 129.138 37.2311C132.352 37.2311 135.284 36.44 137.935 34.8578V36.0445C134.688 38.6815 130.695 40 125.957 40C120.257 40 115.469 38.2035 111.592 34.6106C107.715 31.0177 105.777 26.2546 105.777 20.3214C105.777 14.1574 107.748 9.2295 111.691 5.5377C115.668 1.8459 120.423 0 125.957 0C131.026 0 135.019 1.00536 137.935 3.01607Z" fill="#403838"/>
<path d="M158.334 18.937V20.9642H148.343V37.3795H161.913V39.3572H143.92V0.49444H161.913V2.52163H148.343V18.937H158.334Z" fill="#403838"/>
<path d="M173.312 0.49444V37.3795H188.92V39.3572H168.889V0.49444H173.312Z" fill="#403838"/>
<path d="M223.997 39.3572H219.176L213.161 24.4252H200.338L194.373 39.3572H191.987L207.744 0.148332H208.141L223.997 39.3572ZM206.7 8.45488L201.133 22.398H212.316L206.7 8.45488Z" fill="#403838"/>
<path d="M266.669 39.3572H265.923L233.964 4.7466V39.3572H231.826V0.49444H236.151L264.532 31.8418V0.49444H266.669V39.3572Z" fill="#403838"/>
<path d="M294.327 39.8517C288.263 39.8517 283.425 38.0387 279.814 34.4129C276.202 30.787 274.396 26.0404 274.396 20.1731C274.396 17.0416 274.976 14.1739 276.135 11.5698C277.328 8.9658 278.869 6.83972 280.758 5.1916C282.68 3.54347 284.817 2.27441 287.17 1.38443C289.523 0.461476 291.908 0 294.327 0C300.391 0 305.229 1.81294 308.841 5.43881C312.453 9.06469 314.259 13.8113 314.259 19.6786C314.259 22.8101 313.662 25.6778 312.469 28.2818C311.31 30.8859 309.769 33.0119 307.847 34.6601C305.958 36.3082 303.837 37.5937 301.485 38.5167C299.132 39.4067 296.746 39.8517 294.327 39.8517ZM278.919 19.9258C278.919 21.8047 279.3 23.7495 280.062 25.7602C280.857 27.7709 281.951 29.6663 283.343 31.4462C284.734 33.2262 286.557 34.693 288.81 35.8467C291.096 37.0004 293.565 37.5773 296.216 37.5773C299.298 37.5773 302.214 36.5719 304.964 34.5612C306.455 32.6494 307.615 30.5892 308.443 28.3807C309.305 26.1722 309.736 23.3539 309.736 19.9258C309.736 18.047 309.338 16.1022 308.543 14.0915C307.781 12.0808 306.704 10.1854 305.312 8.40544C303.92 6.62546 302.081 5.15863 299.795 4.00495C297.542 2.85126 295.089 2.27441 292.439 2.27441C289.357 2.27441 286.441 3.27977 283.691 5.29048C282.199 7.20231 281.023 9.26246 280.161 11.471C279.333 13.6794 278.919 16.4977 278.919 19.9258Z" fill="#403838"/>
<path d="M320.013 36.44V31.4462C320.941 32.7977 322.183 34.0832 323.741 35.3028C325.331 36.5225 326.855 37.2641 328.313 37.5278C330.732 37.9563 332.803 37.6267 334.527 36.5389C335.852 34.8578 336.515 32.946 336.515 30.8035C336.515 29.3531 336.101 28.0346 335.272 26.848C334.444 25.6283 333.4 24.623 332.141 23.8319C330.915 23.0078 329.573 22.1178 328.115 21.1619C326.657 20.1731 325.298 19.2171 324.039 18.2942C322.813 17.3712 321.786 16.1681 320.957 14.6848C320.129 13.2015 319.715 11.5534 319.715 9.74042C319.715 8.12526 320.046 6.67491 320.709 5.38937C321.405 4.07087 322.283 3.04903 323.343 2.32386C324.437 1.56572 325.547 0.988877 326.673 0.593326C327.833 0.197775 328.96 0 330.053 0C333.035 0 335.686 0.857026 338.006 2.57108V7.41656C335.62 4.38401 333.151 2.62052 330.6 2.12608C328.512 1.73053 326.706 2.0272 325.182 3.01607C323.757 4.69716 323.045 6.46065 323.045 8.30655C323.045 9.7569 323.476 11.0754 324.337 12.2621C325.199 13.4157 326.259 14.3717 327.518 15.1298C328.811 15.8879 330.202 16.745 331.693 17.7009C333.218 18.6238 334.609 19.5632 335.869 20.5192C337.161 21.4421 338.238 22.6947 339.099 24.2769C339.961 25.8591 340.392 27.6391 340.392 29.6168C340.392 32.6823 339.215 35.171 336.863 37.0828C334.51 38.9617 331.71 39.9011 328.463 39.9011C326.938 39.9011 325.364 39.5715 323.741 38.9122C322.117 38.22 320.874 37.396 320.013 36.44Z" fill="#403838"/>
<path d="M377.333 39.3572H372.512L366.498 24.4252H353.674L347.709 39.3572H345.324L361.08 0.148332H361.478L377.333 39.3572ZM360.036 8.45488L354.469 22.398H365.653L360.036 8.45488Z" fill="#403838"/>
</svg>
