<svg width="283" height="30" viewBox="0 0 283 30" fill="none" xmlns="http://www.w3.org/2000/svg">
<path d="M0 0.37083H6.03909C9.56811 0.37083 12.0906 1.10012 13.6066 2.55871C15.1474 3.99258 15.9179 5.90853 15.9179 8.30655C15.9179 9.96292 15.4208 11.4462 14.4267 12.7565C13.4326 14.0668 12.2646 15.0433 10.9226 15.686C9.60539 16.3288 8.22609 16.7367 6.78466 16.9098L6.63555 15.9456C10.5373 15.2534 12.4882 12.9295 12.4882 8.97404C12.4882 6.74907 11.7924 5.0309 10.4007 3.81953C9.03379 2.60816 7.2817 1.96539 5.14441 1.89122H3.31777V29.5179H0V0.37083Z" fill="#403838"/>
<path d="M34.8634 29.8888C30.3154 29.8888 26.687 28.529 23.9781 25.8096C21.2692 23.0902 19.9148 19.5303 19.9148 15.1298C19.9148 12.7812 20.3497 10.6304 21.2195 8.67738C22.1142 6.72435 23.2698 5.12979 24.6864 3.8937C26.1278 2.6576 27.7308 1.70581 29.4953 1.03832C31.2598 0.346107 33.0492 0 34.8634 0C39.4114 0 43.0398 1.3597 45.7487 4.07911C48.4576 6.79852 49.812 10.3585 49.812 14.759C49.812 17.1075 49.3647 19.2583 48.47 21.2114C47.6002 23.1644 46.4445 24.759 45.0031 25.9951C43.5865 27.2312 41.996 28.1953 40.2315 28.8875C38.467 29.555 36.6776 29.8888 34.8634 29.8888ZM23.3071 14.9444C23.3071 16.3535 23.5929 17.8121 24.1645 19.3202C24.761 20.8282 25.5811 22.2497 26.6249 23.5847C27.6687 24.9197 29.0356 26.0198 30.7255 26.885C32.4403 27.7503 34.2918 28.1829 36.28 28.1829C38.5912 28.1829 40.7782 27.4289 42.841 25.9209C43.9593 24.487 44.8292 22.9419 45.4505 21.2855C46.0966 19.6292 46.4197 17.5155 46.4197 14.9444C46.4197 13.5352 46.1215 12.0766 45.525 10.5686C44.9534 9.06057 44.1457 7.63906 43.1019 6.30408C42.0581 4.9691 40.6788 3.86898 38.964 3.00371C37.2741 2.13844 35.435 1.70581 33.4468 1.70581C31.1356 1.70581 28.9486 2.45983 26.8858 3.96786C25.7675 5.40173 24.8852 6.94685 24.2391 8.60322C23.6178 10.2596 23.3071 12.3733 23.3071 14.9444Z" fill="#403838"/>
<path d="M54.4258 0.37083H60.4276C63.9566 0.37083 66.4791 1.10012 67.9951 2.55871C69.5359 3.99258 70.3064 5.90853 70.3064 8.30655C70.3064 9.91347 69.8715 11.3597 69.0016 12.6452C68.1567 13.9061 66.9389 14.9073 65.3484 15.649C69.4241 20.3214 72.4685 23.56 74.4815 25.3646C76.4946 27.1446 78.1224 28.22 79.365 28.5909L79.2159 29.3325C78.6194 29.4314 77.9857 29.4808 77.3147 29.4808C75.6247 29.4808 73.9099 28.8504 72.1703 27.5896C71.8224 27.3424 71.4371 27.0457 71.0147 26.6996C70.617 26.3288 70.1573 25.8838 69.6354 25.3646C69.1383 24.8455 68.691 24.3758 68.2933 23.9555C67.8957 23.5105 67.3738 22.9172 66.7277 22.1755C66.0815 21.4339 65.5844 20.8529 65.2365 20.4326C64.8886 20.0124 64.3418 19.382 63.5963 18.5414C62.8756 17.6761 62.3785 17.0705 62.1051 16.7244C60.7631 16.9963 59.3093 17.1075 57.7436 17.0581V29.5179H54.4258V0.37083ZM57.7436 1.89122V15.9456C63.8324 16.0198 66.8768 13.6959 66.8768 8.97404C66.8768 6.74907 66.1809 5.0309 64.7892 3.81953C63.4223 2.60816 61.6702 1.96539 59.5329 1.89122H57.7436Z" fill="#403838"/>
<path d="M103.451 2.26205V5.00618C101.14 2.70705 98.2574 1.55748 94.8029 1.55748C91.0751 1.55748 88.1301 2.66996 85.9679 4.89493C83.8058 7.1199 82.7247 10.2349 82.7247 14.2398C82.7247 16.3906 83.0975 18.356 83.8431 20.136C84.6135 21.8912 85.6449 23.3251 86.9372 24.4376C88.2543 25.5501 89.7579 26.4153 91.4479 27.0334C93.1378 27.6267 94.9396 27.9234 96.8532 27.9234C99.2639 27.9234 101.463 27.33 103.451 26.1434V27.0334C101.016 29.0111 98.0213 30 94.4674 30C90.1928 30 86.6017 28.6527 83.694 25.958C80.7862 23.2633 79.3324 19.691 79.3324 15.241C79.3324 10.618 80.8111 6.92213 83.7685 4.15328C86.7508 1.38443 90.3171 0 94.4674 0C98.2698 0 101.264 0.754018 103.451 2.26205Z" fill="#403838"/>
<path d="M118.75 14.2027V15.7231H111.257V28.0346H121.434V29.5179H107.94V0.37083H121.434V1.89122H111.257V14.2027H118.75Z" fill="#403838"/>
<path d="M129.984 0.37083V28.0346H141.69V29.5179H126.667V0.37083H129.984Z" fill="#403838"/>
<path d="M167.998 29.5179H164.382L159.871 18.3189H150.253L145.78 29.5179H143.991L155.808 0.111249H156.106L167.998 29.5179ZM155.025 6.34116L150.85 16.7985H159.237L155.025 6.34116Z" fill="#403838"/>
<path d="M200.002 29.5179H199.443L175.473 3.55995V29.5179H173.87V0.37083H177.113L198.399 23.8813V0.37083H200.002V29.5179Z" fill="#403838"/>
<path d="M220.745 29.8888C216.197 29.8888 212.569 28.529 209.86 25.8096C207.151 23.0902 205.797 19.5303 205.797 15.1298C205.797 12.7812 206.232 10.6304 207.102 8.67738C207.996 6.72435 209.152 5.12979 210.568 3.8937C212.01 2.6576 213.613 1.70581 215.377 1.03832C217.142 0.346107 218.931 0 220.745 0C225.293 0 228.922 1.3597 231.631 4.07911C234.34 6.79852 235.694 10.3585 235.694 14.759C235.694 17.1075 235.247 19.2583 234.352 21.2114C233.482 23.1644 232.327 24.759 230.885 25.9951C229.469 27.2312 227.878 28.1953 226.114 28.8875C224.349 29.555 222.56 29.8888 220.745 29.8888ZM209.189 14.9444C209.189 16.3535 209.475 17.8121 210.047 19.3202C210.643 20.8282 211.463 22.2497 212.507 23.5847C213.551 24.9197 214.918 26.0198 216.608 26.885C218.322 27.7503 220.174 28.1829 222.162 28.1829C224.473 28.1829 226.66 27.4289 228.723 25.9209C229.841 24.487 230.711 22.9419 231.333 21.2855C231.979 19.6292 232.302 17.5155 232.302 14.9444C232.302 13.5352 232.004 12.0766 231.407 10.5686C230.835 9.06057 230.028 7.63906 228.984 6.30408C227.94 4.9691 226.561 3.86898 224.846 3.00371C223.156 2.13844 221.317 1.70581 219.329 1.70581C217.018 1.70581 214.831 2.45983 212.768 3.96786C211.65 5.40173 210.767 6.94685 210.121 8.60322C209.5 10.2596 209.189 12.3733 209.189 14.9444Z" fill="#403838"/>
<path d="M240.01 27.33V23.5847C240.705 24.5983 241.637 25.5624 242.805 26.4771C243.998 27.3918 245.142 27.9481 246.235 28.1459C248.049 28.4672 249.603 28.22 250.895 27.4042C251.889 26.1434 252.386 24.7095 252.386 23.1026C252.386 22.0148 252.075 21.026 251.454 20.136C250.833 19.2213 250.05 18.4672 249.106 17.8739C248.186 17.2559 247.179 16.5884 246.086 15.8714C244.992 15.1298 243.974 14.4129 243.029 13.7206C242.11 13.0284 241.339 12.1261 240.718 11.0136C240.097 9.90111 239.786 8.66502 239.786 7.30532C239.786 6.09394 240.034 5.00618 240.532 4.04203C241.053 3.05315 241.712 2.28677 242.507 1.74289C243.327 1.17429 244.16 0.741658 245.005 0.444995C245.875 0.148332 246.72 0 247.54 0C249.777 0 251.765 0.642769 253.504 1.92831V5.56242C251.715 3.28801 249.864 1.96539 247.95 1.59456C246.384 1.2979 245.03 1.5204 243.887 2.26205C242.818 3.52287 242.284 4.84549 242.284 6.22991C242.284 7.31768 242.607 8.30655 243.253 9.19654C243.899 10.0618 244.694 10.7787 245.639 11.3473C246.608 11.9159 247.652 12.5587 248.77 13.2757C249.913 13.9679 250.957 14.6724 251.901 15.3894C252.871 16.0816 253.678 17.021 254.324 18.2077C254.971 19.3943 255.294 20.7293 255.294 22.2126C255.294 24.5117 254.411 26.3782 252.647 27.8121C250.882 29.2213 248.782 29.9258 246.347 29.9258C245.204 29.9258 244.023 29.6786 242.805 29.1842C241.588 28.665 240.656 28.047 240.01 27.33Z" fill="#403838"/>
<path d="M283 29.5179H279.384L274.873 18.3189H265.255L260.782 29.5179H258.993L270.81 0.111249H271.108L283 29.5179ZM270.027 6.34116L265.852 16.7985H274.24L270.027 6.34116Z" fill="#403838"/>
</svg>
